<?xml version="1.0" encoding="UTF-8" standalone="no"?>
<svg
   height="1in"
   width="1in"
   viewBox="-500 -500 1000 1000"
   version="1.1"
   id="svg1"
   sodipodi:docname="club.svg"
   inkscape:version="1.4.2 (f4327f4, 2025-05-13)"
   xmlns:inkscape="http://www.inkscape.org/namespaces/inkscape"
   xmlns:sodipodi="http://sodipodi.sourceforge.net/DTD/sodipodi-0.dtd"
   xmlns="http://www.w3.org/2000/svg"
   xmlns:svg="http://www.w3.org/2000/svg">
  <defs
     id="defs1" />
  <sodipodi:namedview
     id="namedview1"
     pagecolor="#ffffff"
     bordercolor="#000000"
     borderopacity="0.25"
     inkscape:showpageshadow="2"
     inkscape:pageopacity="0.0"
     inkscape:pagecheckerboard="0"
     inkscape:deskcolor="#d1d1d1"
     inkscape:document-units="in"
     inkscape:zoom="12.427083"
     inkscape:cx="48"
     inkscape:cy="48"
     inkscape:window-width="2560"
     inkscape:window-height="1411"
     inkscape:window-x="-9"
     inkscape:window-y="-9"
     inkscape:window-maximized="1"
     inkscape:current-layer="svg1" />
  <path
     d="M 29.498929,148.94336 C 34.498752,384.65282 84.496979,399.6981 129.4954,500 h -259.99079 c 44.998393,-100.3019 94.996622,-115.34718 99.996445,-351.05664 a 9.9996459,10.03019 0 0 0 -19.999291,0 209.99255,210.63399 0 1 1 -73.997374,-201.606816 9.9996458,10.03019 0 0 0 13.9995,-14.042266 229.99185,230.69437 0 1 1 219.99221,0 9.9996458,10.03019 0 0 0 13.9995,14.042266 209.99255,210.63399 0 1 1 -73.99738,201.606816 9.9996462,10.03019 0 0 0 -19.999291,0 z"
     fill="#000000"
     id="path1"
     style="stroke-width:0;stroke-dasharray:none" />
</svg>
