<?xml version="1.0" encoding="UTF-8" standalone="no"?>
<svg
   height="1in"
   width="1in"
   viewBox="-500 -500 1000 1000"
   version="1.1"
   id="svg1"
   sodipodi:docname="club2.svg"
   inkscape:version="1.4.2 (f4327f4, 2025-05-13)"
   xmlns:inkscape="http://www.inkscape.org/namespaces/inkscape"
   xmlns:sodipodi="http://sodipodi.sourceforge.net/DTD/sodipodi-0.dtd"
   xmlns="http://www.w3.org/2000/svg"
   xmlns:svg="http://www.w3.org/2000/svg">
  <defs
     id="defs1" />
  <sodipodi:namedview
     id="namedview1"
     pagecolor="#ffffff"
     bordercolor="#000000"
     borderopacity="0.25"
     inkscape:showpageshadow="2"
     inkscape:pageopacity="0.0"
     inkscape:pagecheckerboard="0"
     inkscape:deskcolor="#d1d1d1"
     inkscape:document-units="in"
     inkscape:zoom="12.427083"
     inkscape:cx="48.000001"
     inkscape:cy="48.000001"
     inkscape:window-width="2560"
     inkscape:window-height="1411"
     inkscape:window-x="-9"
     inkscape:window-y="-9"
     inkscape:window-maximized="1"
     inkscape:current-layer="svg1"
     showgrid="false" />
  <path
     d="M 28.471784,141.17164 C 33.217079,364.61521 80.67,378.8776 123.37763,473.95993 h -246.75518 c 42.707607,-95.08233 90.16053,-109.34472 94.905825,-332.78829 a 9.4905852,9.5082373 0 0 0 -18.981169,0 199.30227,199.67301 0 1 1 -70.230316,-191.115568 9.4905851,9.5082373 0 0 0 13.28682,-13.311533 218.28346,218.68945 0 1 1 208.79286,0 9.4905851,9.5082373 0 0 0 13.28682,13.311533 199.30227,199.67301 0 1 1 -70.230337,191.115568 9.4905855,9.5082373 0 0 0 -18.981169,0 z"
     fill="#000000"
     id="path1"
     style="fill:#a8a8a8;fill-opacity:1;stroke:#ffffff;stroke-width:52.0802;stroke-dasharray:none;stroke-opacity:1" />
</svg>
