<?xml version="1.0" encoding="UTF-8" standalone="no"?>
<svg
   class="card"
   face="2C"
   height="3.5in"
   preserveAspectRatio="none"
   viewBox="-120 -168 240 336"
   width="2.5in"
   version="1.1"
   id="svg5"
   xmlns:xlink="http://www.w3.org/1999/xlink"
   xmlns="http://www.w3.org/2000/svg"
   xmlns:svg="http://www.w3.org/2000/svg">
  <defs
     id="defs2">
    <symbol
       id="SC2"
       viewBox="-600 -600 1200 1200"
       preserveAspectRatio="xMinYMid">
      <path
         d="M30 150C35 385 85 400 130 500L-130 500C-85 400 -35 385 -30 150A10 10 0 0 0 -50 150A210 210 0 1 1 -124 -51A10 10 0 0 0 -110 -65A230 230 0 1 1 110 -65A10 10 0 0 0 124 -51A210 210 0 1 1 50 150A10 10 0 0 0 30 150Z"
         fill="black"
         id="path1" />
    </symbol>
    <symbol
       id="VC2"
       viewBox="-500 -500 1000 1000"
       preserveAspectRatio="xMinYMid">
      <path
         d="M-225 -225C-245 -265 -200 -460 0 -460C 200 -460 225 -325 225 -225C225 -25 -225 160 -225 460L225 460L225 300"
         stroke="black"
         stroke-width="80"
         stroke-linecap="square"
         stroke-miterlimit="1.5"
         fill="none"
         id="path2" />
    </symbol>
  </defs>
  <rect
     height="331.20001"
     x="-117.6"
     y="-165.60001"
     rx="12"
     ry="12"
     fill="#ffffff"
     stroke="#000000"
     id="rect2"
     style="stroke-width:4.8;stroke-dasharray:none"
     width="235.2" />
  <use
     xlink:href="#VC2"
     height="70"
     width="70"
     x="-122"
     y="-156"
     id="use2" />
  <use
     xlink:href="#SC2"
     height="58.558"
     width="58.558"
     x="-116.279"
     y="-81"
     id="use3" />
  <g
     transform="rotate(180)"
     id="g5">
    <use
       xlink:href="#VC2"
       height="70"
       width="70"
       x="-122"
       y="-156"
       id="use4" />
    <use
       xlink:href="#SC2"
       height="58.558"
       width="58.558"
       x="-116.279"
       y="-81"
       id="use5" />
  </g>
</svg>
