<?xml version="1.0" encoding="UTF-8" standalone="no"?>
<svg
   class="card"
   face="9D"
   height="3.5in"
   preserveAspectRatio="none"
   viewBox="-120 -168 240 336"
   width="2.5in"
   version="1.1"
   id="svg5"
   sodipodi:docname="9d.svg"
   inkscape:version="1.4.2 (f4327f4, 2025-05-13)"
   xmlns:inkscape="http://www.inkscape.org/namespaces/inkscape"
   xmlns:sodipodi="http://sodipodi.sourceforge.net/DTD/sodipodi-0.dtd"
   xmlns:xlink="http://www.w3.org/1999/xlink"
   xmlns="http://www.w3.org/2000/svg"
   xmlns:svg="http://www.w3.org/2000/svg">
  <sodipodi:namedview
     id="namedview5"
     pagecolor="#ffffff"
     bordercolor="#000000"
     borderopacity="0.25"
     inkscape:showpageshadow="2"
     inkscape:pageopacity="0.0"
     inkscape:pagecheckerboard="0"
     inkscape:deskcolor="#d1d1d1"
     inkscape:document-units="in"
     showgrid="false"
     inkscape:zoom="3.5505952"
     inkscape:cx="120.1207"
     inkscape:cy="168"
     inkscape:window-width="2560"
     inkscape:window-height="1411"
     inkscape:window-x="-9"
     inkscape:window-y="-9"
     inkscape:window-maximized="1"
     inkscape:current-layer="svg5" />
  <defs
     id="defs2">
    <symbol
       id="SD9"
       viewBox="-600 -600 1200 1200"
       preserveAspectRatio="xMinYMid">
      <path
         d="M-400 0C-350 0 0 -450 0 -500C0 -450 350 0 400 0C350 0 0 450 0 500C0 450 -350 0 -400 0Z"
         fill="red"
         id="path1" />
    </symbol>
    <symbol
       id="VD9"
       viewBox="-500 -500 1000 1000"
       preserveAspectRatio="xMinYMid">
      <path
         d="M250 -100A250 250 0 0 1 -250 -100L-250 -210A250 250 0 0 1 250 -210L250 210A250 250 0 0 1 0 460C-150 460 -180 400 -200 375"
         stroke="red"
         stroke-width="80"
         stroke-linecap="square"
         stroke-miterlimit="1.5"
         fill="none"
         id="path2" />
    </symbol>
  </defs>
  <rect
     width="235.2"
     height="331.20001"
     x="-117.6"
     y="-165.60001"
     rx="12"
     ry="12"
     fill="#ffffff"
     stroke="#000000"
     id="rect2"
     style="stroke-width:4.8;stroke-dasharray:none" />
  <use
     xlink:href="#VD9"
     height="70"
     width="70"
     x="-122"
     y="-156"
     id="use2" />
  <use
     xlink:href="#SD9"
     height="58.558"
     width="58.558"
     x="-116.279"
     y="-81"
     id="use3" />
  <g
     transform="rotate(180)"
     id="g5">
    <use
       xlink:href="#VD9"
       height="70"
       width="70"
       x="-122"
       y="-156"
       id="use4" />
    <use
       xlink:href="#SD9"
       height="58.558"
       width="58.558"
       x="-116.279"
       y="-81"
       id="use5" />
  </g>
</svg>
