<?xml version="1.0" encoding="UTF-8" standalone="no" ?>
<!DOCTYPE svg PUBLIC "-//W3C//DTD SVG 1.1//EN" "http://www.w3.org/Graphics/SVG/1.1/DTD/svg11.dtd">
<svg xmlns="http://www.w3.org/2000/svg" xmlns:xlink="http://www.w3.org/1999/xlink" version="1.1" width="640" height="640" viewBox="0 0 640 640" xml:space="preserve">
<desc>Created with Fabric.js 5.3.0</desc>
<defs>
</defs>
<g transform="matrix(0.5493562232 0 0 0.5493562232 40 40)" id="r9ovC2sl5HepZEbIZ9BkG"  >
<path style="stroke: rgb(53,12,111); stroke-width: 0; stroke-dasharray: none; stroke-linecap: butt; stroke-dashoffset: 0; stroke-linejoin: miter; stroke-miterlimit: 4; fill: rgb(233,211,189); fill-rule: nonzero; opacity: 1;"  transform=" translate(0, 0)" d="M -72.8125 -72.8125 L 72.8125 -72.8125 L 72.8125 72.8125 L -72.8125 72.8125 z" stroke-linecap="round" />
</g>
<g transform="matrix(0.5493562232 0 0 0.5493562232 120.0000000018 40.0000000018)" id="deuV7uQKaJmSbS3Jm5d60"  >
<path style="stroke: rgb(53,12,111); stroke-width: 0; stroke-dasharray: none; stroke-linecap: butt; stroke-dashoffset: 0; stroke-linejoin: miter; stroke-miterlimit: 4; fill: rgb(191,127,63); fill-rule: nonzero; opacity: 1;"  transform=" translate(0, 0)" d="M -72.8125 -72.8125 L 72.8125 -72.8125 L 72.8125 72.8125 L -72.8125 72.8125 z" stroke-linecap="round" />
</g>
<g transform="matrix(0.5493562232 0 0 0.5493562232 200.0000000018 40.0000000018)" id="7ygCq-8OYbgrvIBWIntNM"  >
<path style="stroke: rgb(53,12,111); stroke-width: 0; stroke-dasharray: none; stroke-linecap: butt; stroke-dashoffset: 0; stroke-linejoin: miter; stroke-miterlimit: 4; fill: rgb(233,211,189); fill-rule: nonzero; opacity: 1;"  transform=" translate(0, 0)" d="M -72.8125 -72.8125 L 72.8125 -72.8125 L 72.8125 72.8125 L -72.8125 72.8125 z" stroke-linecap="round" />
</g>
<g transform="matrix(0.5493562232 0 0 0.5493562232 280.0000000036 40.0000000036)" id="vxJJ7QIbFsSY1GZhIwUew"  >
<path style="stroke: rgb(53,12,111); stroke-width: 0; stroke-dasharray: none; stroke-linecap: butt; stroke-dashoffset: 0; stroke-linejoin: miter; stroke-miterlimit: 4; fill: rgb(191,127,63); fill-rule: nonzero; opacity: 1;"  transform=" translate(0, 0)" d="M -72.8125 -72.8125 L 72.8125 -72.8125 L 72.8125 72.8125 L -72.8125 72.8125 z" stroke-linecap="round" />
</g>
<g transform="matrix(0.5493562232 0 0 0.5493562232 359.9999999947 40.0000000018)" id="PGt7DYK07aw9gA3Fpc2Ht"  >
<path style="stroke: rgb(53,12,111); stroke-width: 0; stroke-dasharray: none; stroke-linecap: butt; stroke-dashoffset: 0; stroke-linejoin: miter; stroke-miterlimit: 4; fill: rgb(233,211,189); fill-rule: nonzero; opacity: 1;"  transform=" translate(0, 0)" d="M -72.8125 -72.8125 L 72.8125 -72.8125 L 72.8125 72.8125 L -72.8125 72.8125 z" stroke-linecap="round" />
</g>
<g transform="matrix(0.5493562232 0 0 0.5493562232 439.9999999965 40.0000000035)" id="llUD7FaK_Bjd3Nob4l5PV"  >
<path style="stroke: rgb(53,12,111); stroke-width: 0; stroke-dasharray: none; stroke-linecap: butt; stroke-dashoffset: 0; stroke-linejoin: miter; stroke-miterlimit: 4; fill: rgb(191,127,63); fill-rule: nonzero; opacity: 1;"  transform=" translate(0, 0)" d="M -72.8125 -72.8125 L 72.8125 -72.8125 L 72.8125 72.8125 L -72.8125 72.8125 z" stroke-linecap="round" />
</g>
<g transform="matrix(0.5493562232 0 0 0.5493562232 519.9999999965 40.0000000035)" id="KE-O_rJ46aYDEJs0P8oB3"  >
<path style="stroke: rgb(53,12,111); stroke-width: 0; stroke-dasharray: none; stroke-linecap: butt; stroke-dashoffset: 0; stroke-linejoin: miter; stroke-miterlimit: 4; fill: rgb(233,211,189); fill-rule: nonzero; opacity: 1;"  transform=" translate(0, 0)" d="M -72.8125 -72.8125 L 72.8125 -72.8125 L 72.8125 72.8125 L -72.8125 72.8125 z" stroke-linecap="round" />
</g>
<g transform="matrix(0.5493562232 0 0 0.5493562232 599.9999999983 40.0000000053)" id="Oeah1ptJo1KaIRpw9j5uT"  >
<path style="stroke: rgb(53,12,111); stroke-width: 0; stroke-dasharray: none; stroke-linecap: butt; stroke-dashoffset: 0; stroke-linejoin: miter; stroke-miterlimit: 4; fill: rgb(191,127,63); fill-rule: nonzero; opacity: 1;"  transform=" translate(0, 0)" d="M -72.8125 -72.8125 L 72.8125 -72.8125 L 72.8125 72.8125 L -72.8125 72.8125 z" stroke-linecap="round" />
</g>
<g transform="matrix(0.5493562232 0 0 0.5493562232 40.0000000017 119.9999999946)" id="rgIA7VJCto1Aa19GMD6oT"  >
<path style="stroke: rgb(53,12,111); stroke-width: 0; stroke-dasharray: none; stroke-linecap: butt; stroke-dashoffset: 0; stroke-linejoin: miter; stroke-miterlimit: 4; fill: rgb(191,127,63); fill-rule: nonzero; opacity: 1;"  transform=" translate(0, 0)" d="M -72.8125 -72.8125 L 72.8125 -72.8125 L 72.8125 72.8125 L -72.8125 72.8125 z" stroke-linecap="round" />
</g>
<g transform="matrix(0.5493562232 0 0 0.5493562232 120.0000000018 119.9999999946)" id="qWKjctYi2AW7bSOHLoEMy"  >
<path style="stroke: rgb(53,12,111); stroke-width: 0; stroke-dasharray: none; stroke-linecap: butt; stroke-dashoffset: 0; stroke-linejoin: miter; stroke-miterlimit: 4; fill: rgb(233,211,189); fill-rule: nonzero; opacity: 1;"  transform=" translate(0, 0)" d="M -72.8125 -72.8125 L 72.8125 -72.8125 L 72.8125 72.8125 L -72.8125 72.8125 z" stroke-linecap="round" />
</g>
<g transform="matrix(0.5493562232 0 0 0.5493562232 200.0000000036 119.9999999964)" id="GAcbVxBuGkw7-EqPTXlPX"  >
<path style="stroke: rgb(53,12,111); stroke-width: 0; stroke-dasharray: none; stroke-linecap: butt; stroke-dashoffset: 0; stroke-linejoin: miter; stroke-miterlimit: 4; fill: rgb(191,127,63); fill-rule: nonzero; opacity: 1;"  transform=" translate(0, 0)" d="M -72.8125 -72.8125 L 72.8125 -72.8125 L 72.8125 72.8125 L -72.8125 72.8125 z" stroke-linecap="round" />
</g>
<g transform="matrix(0.5493562232 0 0 0.5493562232 279.9999999947 119.9999999946)" id="W16uXlEC79NEyNw2D9uEC"  >
<path style="stroke: rgb(53,12,111); stroke-width: 0; stroke-dasharray: none; stroke-linecap: butt; stroke-dashoffset: 0; stroke-linejoin: miter; stroke-miterlimit: 4; fill: rgb(233,211,189); fill-rule: nonzero; opacity: 1;"  transform=" translate(0, 0)" d="M -72.8125 -72.8125 L 72.8125 -72.8125 L 72.8125 72.8125 L -72.8125 72.8125 z" stroke-linecap="round" />
</g>
<g transform="matrix(0.5493562232 0 0 0.5493562232 359.9999999965 119.9999999964)" id="Aq6Hb3oeew1Hyq5BscEqy"  >
<path style="stroke: rgb(53,12,111); stroke-width: 0; stroke-dasharray: none; stroke-linecap: butt; stroke-dashoffset: 0; stroke-linejoin: miter; stroke-miterlimit: 4; fill: rgb(191,127,63); fill-rule: nonzero; opacity: 1;"  transform=" translate(0, 0)" d="M -72.8125 -72.8125 L 72.8125 -72.8125 L 72.8125 72.8125 L -72.8125 72.8125 z" stroke-linecap="round" />
</g>
<g transform="matrix(0.5493562232 0 0 0.5493562232 439.9999999965 119.9999999964)" id="B5XTuJrOwN_szZB5EJ5-P"  >
<path style="stroke: rgb(53,12,111); stroke-width: 0; stroke-dasharray: none; stroke-linecap: butt; stroke-dashoffset: 0; stroke-linejoin: miter; stroke-miterlimit: 4; fill: rgb(233,211,189); fill-rule: nonzero; opacity: 1;"  transform=" translate(0, 0)" d="M -72.8125 -72.8125 L 72.8125 -72.8125 L 72.8125 72.8125 L -72.8125 72.8125 z" stroke-linecap="round" />
</g>
<g transform="matrix(0.5493562232 0 0 0.5493562232 600.0000000017 120.0000000018)" id="ZGTHOSPHOEL7fDJvew6Z9"  >
<path style="stroke: rgb(53,12,111); stroke-width: 0; stroke-dasharray: none; stroke-linecap: butt; stroke-dashoffset: 0; stroke-linejoin: miter; stroke-miterlimit: 4; fill: rgb(233,211,189); fill-rule: nonzero; opacity: 1;"  transform=" translate(0, 0)" d="M -72.8125 -72.8125 L 72.8125 -72.8125 L 72.8125 72.8125 L -72.8125 72.8125 z" stroke-linecap="round" />
</g>
<g transform="matrix(0.5493562232 0 0 0.5493562232 519.9999999983 119.9999999982)" id="7Tn3u2ZGYgLUeq2gSWVax"  >
<path style="stroke: rgb(53,12,111); stroke-width: 0; stroke-dasharray: none; stroke-linecap: butt; stroke-dashoffset: 0; stroke-linejoin: miter; stroke-miterlimit: 4; fill: rgb(191,127,63); fill-rule: nonzero; opacity: 1;"  transform=" translate(0, 0)" d="M -72.8125 -72.8125 L 72.8125 -72.8125 L 72.8125 72.8125 L -72.8125 72.8125 z" stroke-linecap="round" />
</g>
<g transform="matrix(0.5493562232 0 0 0.5493562232 39.9999999965 200.0000000018)" id="fCVDiVKbGpcSsA4UETMJL"  >
<path style="stroke: rgb(53,12,111); stroke-width: 0; stroke-dasharray: none; stroke-linecap: butt; stroke-dashoffset: 0; stroke-linejoin: miter; stroke-miterlimit: 4; fill: rgb(233,211,189); fill-rule: nonzero; opacity: 1;"  transform=" translate(0, 0)" d="M -72.8125 -72.8125 L 72.8125 -72.8125 L 72.8125 72.8125 L -72.8125 72.8125 z" stroke-linecap="round" />
</g>
<g transform="matrix(0.5493562232 0 0 0.5493562232 119.9999999982 200.0000000036)" id="6lQikpKToCWWq6Hs_gcyS"  >
<path style="stroke: rgb(53,12,111); stroke-width: 0; stroke-dasharray: none; stroke-linecap: butt; stroke-dashoffset: 0; stroke-linejoin: miter; stroke-miterlimit: 4; fill: rgb(191,127,63); fill-rule: nonzero; opacity: 1;"  transform=" translate(0, 0)" d="M -72.8125 -72.8125 L 72.8125 -72.8125 L 72.8125 72.8125 L -72.8125 72.8125 z" stroke-linecap="round" />
</g>
<g transform="matrix(0.5493562232 0 0 0.5493562232 199.9999999982 200.0000000036)" id="dLL4dFXUn0853WtOWdyJh"  >
<path style="stroke: rgb(53,12,111); stroke-width: 0; stroke-dasharray: none; stroke-linecap: butt; stroke-dashoffset: 0; stroke-linejoin: miter; stroke-miterlimit: 4; fill: rgb(233,211,189); fill-rule: nonzero; opacity: 1;"  transform=" translate(0, 0)" d="M -72.8125 -72.8125 L 72.8125 -72.8125 L 72.8125 72.8125 L -72.8125 72.8125 z" stroke-linecap="round" />
</g>
<g transform="matrix(0.5493562232 0 0 0.5493562232 280 200.0000000054)" id="QIP3WEKk5FDBuESs6O1t7"  >
<path style="stroke: rgb(53,12,111); stroke-width: 0; stroke-dasharray: none; stroke-linecap: butt; stroke-dashoffset: 0; stroke-linejoin: miter; stroke-miterlimit: 4; fill: rgb(191,127,63); fill-rule: nonzero; opacity: 1;"  transform=" translate(0, 0)" d="M -72.8125 -72.8125 L 72.8125 -72.8125 L 72.8125 72.8125 L -72.8125 72.8125 z" stroke-linecap="round" />
</g>
<g transform="matrix(0.5493562232 0 0 0.5493562232 359.9999999911 200.0000000036)" id="k7cO8pz9SvW5Y-Ve3kBud"  >
<path style="stroke: rgb(53,12,111); stroke-width: 0; stroke-dasharray: none; stroke-linecap: butt; stroke-dashoffset: 0; stroke-linejoin: miter; stroke-miterlimit: 4; fill: rgb(233,211,189); fill-rule: nonzero; opacity: 1;"  transform=" translate(0, 0)" d="M -72.8125 -72.8125 L 72.8125 -72.8125 L 72.8125 72.8125 L -72.8125 72.8125 z" stroke-linecap="round" />
</g>
<g transform="matrix(0.5493562232 0 0 0.5493562232 439.9999999929 200.0000000054)" id="FR2Yn-d7a8jBNiIPgT64u"  >
<path style="stroke: rgb(53,12,111); stroke-width: 0; stroke-dasharray: none; stroke-linecap: butt; stroke-dashoffset: 0; stroke-linejoin: miter; stroke-miterlimit: 4; fill: rgb(191,127,63); fill-rule: nonzero; opacity: 1;"  transform=" translate(0, 0)" d="M -72.8125 -72.8125 L 72.8125 -72.8125 L 72.8125 72.8125 L -72.8125 72.8125 z" stroke-linecap="round" />
</g>
<g transform="matrix(0.5493562232 0 0 0.5493562232 519.9999999929 200.0000000054)" id="NopRhlhSRpBTWSSDahGQw"  >
<path style="stroke: rgb(53,12,111); stroke-width: 0; stroke-dasharray: none; stroke-linecap: butt; stroke-dashoffset: 0; stroke-linejoin: miter; stroke-miterlimit: 4; fill: rgb(233,211,189); fill-rule: nonzero; opacity: 1;"  transform=" translate(0, 0)" d="M -72.8125 -72.8125 L 72.8125 -72.8125 L 72.8125 72.8125 L -72.8125 72.8125 z" stroke-linecap="round" />
</g>
<g transform="matrix(0.5493562232 0 0 0.5493562232 599.9999999947 200.0000000072)" id="ACwEtGQhzY7NjuuX51KnD"  >
<path style="stroke: rgb(53,12,111); stroke-width: 0; stroke-dasharray: none; stroke-linecap: butt; stroke-dashoffset: 0; stroke-linejoin: miter; stroke-miterlimit: 4; fill: rgb(191,127,63); fill-rule: nonzero; opacity: 1;"  transform=" translate(0, 0)" d="M -72.8125 -72.8125 L 72.8125 -72.8125 L 72.8125 72.8125 L -72.8125 72.8125 z" stroke-linecap="round" />
</g>
<g transform="matrix(0.5493562232 0 0 0.5493562232 39.9999999982 279.9999999965)" id="Nc35L9ABKTnwRM9VjoXph"  >
<path style="stroke: rgb(53,12,111); stroke-width: 0; stroke-dasharray: none; stroke-linecap: butt; stroke-dashoffset: 0; stroke-linejoin: miter; stroke-miterlimit: 4; fill: rgb(191,127,63); fill-rule: nonzero; opacity: 1;"  transform=" translate(0, 0)" d="M -72.8125 -72.8125 L 72.8125 -72.8125 L 72.8125 72.8125 L -72.8125 72.8125 z" stroke-linecap="round" />
</g>
<g transform="matrix(0.5493562232 0 0 0.5493562232 119.9999999982 279.9999999965)" id="PQhJmKeJLwauEwmNSanmA"  >
<path style="stroke: rgb(53,12,111); stroke-width: 0; stroke-dasharray: none; stroke-linecap: butt; stroke-dashoffset: 0; stroke-linejoin: miter; stroke-miterlimit: 4; fill: rgb(233,211,189); fill-rule: nonzero; opacity: 1;"  transform=" translate(0, 0)" d="M -72.8125 -72.8125 L 72.8125 -72.8125 L 72.8125 72.8125 L -72.8125 72.8125 z" stroke-linecap="round" />
</g>
<g transform="matrix(0.5493562232 0 0 0.5493562232 200 279.9999999983)" id="F8pI4maX-sPumeHymsVxQ"  >
<path style="stroke: rgb(53,12,111); stroke-width: 0; stroke-dasharray: none; stroke-linecap: butt; stroke-dashoffset: 0; stroke-linejoin: miter; stroke-miterlimit: 4; fill: rgb(191,127,63); fill-rule: nonzero; opacity: 1;"  transform=" translate(0, 0)" d="M -72.8125 -72.8125 L 72.8125 -72.8125 L 72.8125 72.8125 L -72.8125 72.8125 z" stroke-linecap="round" />
</g>
<g transform="matrix(0.5493562232 0 0 0.5493562232 279.9999999911 279.9999999965)" id="l0T6ckiv3loHKLgvMuFPY"  >
<path style="stroke: rgb(53,12,111); stroke-width: 0; stroke-dasharray: none; stroke-linecap: butt; stroke-dashoffset: 0; stroke-linejoin: miter; stroke-miterlimit: 4; fill: rgb(233,211,189); fill-rule: nonzero; opacity: 1;"  transform=" translate(0, 0)" d="M -72.8125 -72.8125 L 72.8125 -72.8125 L 72.8125 72.8125 L -72.8125 72.8125 z" stroke-linecap="round" />
</g>
<g transform="matrix(0.5493562232 0 0 0.5493562232 359.9999999929 279.9999999983)" id="tKUHQxiHhlZR3kPpiVSIM"  >
<path style="stroke: rgb(53,12,111); stroke-width: 0; stroke-dasharray: none; stroke-linecap: butt; stroke-dashoffset: 0; stroke-linejoin: miter; stroke-miterlimit: 4; fill: rgb(191,127,63); fill-rule: nonzero; opacity: 1;"  transform=" translate(0, 0)" d="M -72.8125 -72.8125 L 72.8125 -72.8125 L 72.8125 72.8125 L -72.8125 72.8125 z" stroke-linecap="round" />
</g>
<g transform="matrix(0.5493562232 0 0 0.5493562232 439.9999999929 279.9999999983)" id="98C2w4JWk44KIeasvYxtf"  >
<path style="stroke: rgb(53,12,111); stroke-width: 0; stroke-dasharray: none; stroke-linecap: butt; stroke-dashoffset: 0; stroke-linejoin: miter; stroke-miterlimit: 4; fill: rgb(233,211,189); fill-rule: nonzero; opacity: 1;"  transform=" translate(0, 0)" d="M -72.8125 -72.8125 L 72.8125 -72.8125 L 72.8125 72.8125 L -72.8125 72.8125 z" stroke-linecap="round" />
</g>
<g transform="matrix(0.5493562232 0 0 0.5493562232 599.9999999982 280.0000000036)" id="56Y0AmSBlvDdbVGL2lrqe"  >
<path style="stroke: rgb(53,12,111); stroke-width: 0; stroke-dasharray: none; stroke-linecap: butt; stroke-dashoffset: 0; stroke-linejoin: miter; stroke-miterlimit: 4; fill: rgb(233,211,189); fill-rule: nonzero; opacity: 1;"  transform=" translate(0, 0)" d="M -72.8125 -72.8125 L 72.8125 -72.8125 L 72.8125 72.8125 L -72.8125 72.8125 z" stroke-linecap="round" />
</g>
<g transform="matrix(0.5493562232 0 0 0.5493562232 519.9999999947 280.0000000001)" id="wLewvTGWVWoB__kpOnUbx"  >
<path style="stroke: rgb(53,12,111); stroke-width: 0; stroke-dasharray: none; stroke-linecap: butt; stroke-dashoffset: 0; stroke-linejoin: miter; stroke-miterlimit: 4; fill: rgb(191,127,63); fill-rule: nonzero; opacity: 1;"  transform=" translate(0, 0)" d="M -72.8125 -72.8125 L 72.8125 -72.8125 L 72.8125 72.8125 L -72.8125 72.8125 z" stroke-linecap="round" />
</g>
<g transform="matrix(0.5493562232 0 0 0.5493562232 39.9999999965 360.0000000018)" id="1fro58-zPKWv_54ReogS2"  >
<path style="stroke: rgb(53,12,111); stroke-width: 0; stroke-dasharray: none; stroke-linecap: butt; stroke-dashoffset: 0; stroke-linejoin: miter; stroke-miterlimit: 4; fill: rgb(233,211,189); fill-rule: nonzero; opacity: 1;"  transform=" translate(0, 0)" d="M -72.8125 -72.8125 L 72.8125 -72.8125 L 72.8125 72.8125 L -72.8125 72.8125 z" stroke-linecap="round" />
</g>
<g transform="matrix(0.5493562232 0 0 0.5493562232 119.9999999982 360.0000000036)" id="M8STAhUs3-LjQGH4kWrNn"  >
<path style="stroke: rgb(53,12,111); stroke-width: 0; stroke-dasharray: none; stroke-linecap: butt; stroke-dashoffset: 0; stroke-linejoin: miter; stroke-miterlimit: 4; fill: rgb(191,127,63); fill-rule: nonzero; opacity: 1;"  transform=" translate(0, 0)" d="M -72.8125 -72.8125 L 72.8125 -72.8125 L 72.8125 72.8125 L -72.8125 72.8125 z" stroke-linecap="round" />
</g>
<g transform="matrix(0.5493562232 0 0 0.5493562232 199.9999999982 360.0000000036)" id="1I11qhL0--AGZzHO4z7KI"  >
<path style="stroke: rgb(53,12,111); stroke-width: 0; stroke-dasharray: none; stroke-linecap: butt; stroke-dashoffset: 0; stroke-linejoin: miter; stroke-miterlimit: 4; fill: rgb(233,211,189); fill-rule: nonzero; opacity: 1;"  transform=" translate(0, 0)" d="M -72.8125 -72.8125 L 72.8125 -72.8125 L 72.8125 72.8125 L -72.8125 72.8125 z" stroke-linecap="round" />
</g>
<g transform="matrix(0.5493562232 0 0 0.5493562232 280 360.0000000054)" id="WSO7viLWKXYHO_hwD4qC0"  >
<path style="stroke: rgb(53,12,111); stroke-width: 0; stroke-dasharray: none; stroke-linecap: butt; stroke-dashoffset: 0; stroke-linejoin: miter; stroke-miterlimit: 4; fill: rgb(191,127,63); fill-rule: nonzero; opacity: 1;"  transform=" translate(0, 0)" d="M -72.8125 -72.8125 L 72.8125 -72.8125 L 72.8125 72.8125 L -72.8125 72.8125 z" stroke-linecap="round" />
</g>
<g transform="matrix(0.5493562232 0 0 0.5493562232 359.9999999911 360.0000000036)" id="UCSbJ2Gyqt5te_RZGkwQE"  >
<path style="stroke: rgb(53,12,111); stroke-width: 0; stroke-dasharray: none; stroke-linecap: butt; stroke-dashoffset: 0; stroke-linejoin: miter; stroke-miterlimit: 4; fill: rgb(233,211,189); fill-rule: nonzero; opacity: 1;"  transform=" translate(0, 0)" d="M -72.8125 -72.8125 L 72.8125 -72.8125 L 72.8125 72.8125 L -72.8125 72.8125 z" stroke-linecap="round" />
</g>
<g transform="matrix(0.5493562232 0 0 0.5493562232 439.9999999929 360.0000000054)" id="XJVWi9NaQ0gBlYwPVeyal"  >
<path style="stroke: rgb(53,12,111); stroke-width: 0; stroke-dasharray: none; stroke-linecap: butt; stroke-dashoffset: 0; stroke-linejoin: miter; stroke-miterlimit: 4; fill: rgb(191,127,63); fill-rule: nonzero; opacity: 1;"  transform=" translate(0, 0)" d="M -72.8125 -72.8125 L 72.8125 -72.8125 L 72.8125 72.8125 L -72.8125 72.8125 z" stroke-linecap="round" />
</g>
<g transform="matrix(0.5493562232 0 0 0.5493562232 519.9999999929 360.0000000054)" id="d5dpmYP1VlnLp7o8Wk7eE"  >
<path style="stroke: rgb(53,12,111); stroke-width: 0; stroke-dasharray: none; stroke-linecap: butt; stroke-dashoffset: 0; stroke-linejoin: miter; stroke-miterlimit: 4; fill: rgb(233,211,189); fill-rule: nonzero; opacity: 1;"  transform=" translate(0, 0)" d="M -72.8125 -72.8125 L 72.8125 -72.8125 L 72.8125 72.8125 L -72.8125 72.8125 z" stroke-linecap="round" />
</g>
<g transform="matrix(0.5493562232 0 0 0.5493562232 599.9999999947 360.0000000072)" id="qkW2qxLMaV0zoEoqTEGyx"  >
<path style="stroke: rgb(53,12,111); stroke-width: 0; stroke-dasharray: none; stroke-linecap: butt; stroke-dashoffset: 0; stroke-linejoin: miter; stroke-miterlimit: 4; fill: rgb(191,127,63); fill-rule: nonzero; opacity: 1;"  transform=" translate(0, 0)" d="M -72.8125 -72.8125 L 72.8125 -72.8125 L 72.8125 72.8125 L -72.8125 72.8125 z" stroke-linecap="round" />
</g>
<g transform="matrix(0.5493562232 0 0 0.5493562232 39.9999999982 439.9999999965)" id="tS34gh2_mVCkZycYrWNBQ"  >
<path style="stroke: rgb(53,12,111); stroke-width: 0; stroke-dasharray: none; stroke-linecap: butt; stroke-dashoffset: 0; stroke-linejoin: miter; stroke-miterlimit: 4; fill: rgb(191,127,63); fill-rule: nonzero; opacity: 1;"  transform=" translate(0, 0)" d="M -72.8125 -72.8125 L 72.8125 -72.8125 L 72.8125 72.8125 L -72.8125 72.8125 z" stroke-linecap="round" />
</g>
<g transform="matrix(0.5493562232 0 0 0.5493562232 119.9999999982 439.9999999965)" id="SU4UTn-cs9yvQu-PK6_5t"  >
<path style="stroke: rgb(53,12,111); stroke-width: 0; stroke-dasharray: none; stroke-linecap: butt; stroke-dashoffset: 0; stroke-linejoin: miter; stroke-miterlimit: 4; fill: rgb(233,211,189); fill-rule: nonzero; opacity: 1;"  transform=" translate(0, 0)" d="M -72.8125 -72.8125 L 72.8125 -72.8125 L 72.8125 72.8125 L -72.8125 72.8125 z" stroke-linecap="round" />
</g>
<g transform="matrix(0.5493562232 0 0 0.5493562232 200 439.9999999983)" id="rkN5RGZSz_xx5KLCLRq12"  >
<path style="stroke: rgb(53,12,111); stroke-width: 0; stroke-dasharray: none; stroke-linecap: butt; stroke-dashoffset: 0; stroke-linejoin: miter; stroke-miterlimit: 4; fill: rgb(191,127,63); fill-rule: nonzero; opacity: 1;"  transform=" translate(0, 0)" d="M -72.8125 -72.8125 L 72.8125 -72.8125 L 72.8125 72.8125 L -72.8125 72.8125 z" stroke-linecap="round" />
</g>
<g transform="matrix(0.5493562232 0 0 0.5493562232 279.9999999911 439.9999999965)" id="kGMV7IH-DH99VXTC2QhkS"  >
<path style="stroke: rgb(53,12,111); stroke-width: 0; stroke-dasharray: none; stroke-linecap: butt; stroke-dashoffset: 0; stroke-linejoin: miter; stroke-miterlimit: 4; fill: rgb(233,211,189); fill-rule: nonzero; opacity: 1;"  transform=" translate(0, 0)" d="M -72.8125 -72.8125 L 72.8125 -72.8125 L 72.8125 72.8125 L -72.8125 72.8125 z" stroke-linecap="round" />
</g>
<g transform="matrix(0.5493562232 0 0 0.5493562232 359.9999999929 439.9999999983)" id="j9QV3XZgxbISeSqkxemI7"  >
<path style="stroke: rgb(53,12,111); stroke-width: 0; stroke-dasharray: none; stroke-linecap: butt; stroke-dashoffset: 0; stroke-linejoin: miter; stroke-miterlimit: 4; fill: rgb(191,127,63); fill-rule: nonzero; opacity: 1;"  transform=" translate(0, 0)" d="M -72.8125 -72.8125 L 72.8125 -72.8125 L 72.8125 72.8125 L -72.8125 72.8125 z" stroke-linecap="round" />
</g>
<g transform="matrix(0.5493562232 0 0 0.5493562232 439.9999999929 439.9999999983)" id="K_6VSmX0qQX19N-sVcF_Y"  >
<path style="stroke: rgb(53,12,111); stroke-width: 0; stroke-dasharray: none; stroke-linecap: butt; stroke-dashoffset: 0; stroke-linejoin: miter; stroke-miterlimit: 4; fill: rgb(233,211,189); fill-rule: nonzero; opacity: 1;"  transform=" translate(0, 0)" d="M -72.8125 -72.8125 L 72.8125 -72.8125 L 72.8125 72.8125 L -72.8125 72.8125 z" stroke-linecap="round" />
</g>
<g transform="matrix(0.5493562232 0 0 0.5493562232 599.9999999982 440.0000000036)" id="InWKLn3FNkhy6650nmaMe"  >
<path style="stroke: rgb(53,12,111); stroke-width: 0; stroke-dasharray: none; stroke-linecap: butt; stroke-dashoffset: 0; stroke-linejoin: miter; stroke-miterlimit: 4; fill: rgb(233,211,189); fill-rule: nonzero; opacity: 1;"  transform=" translate(0, 0)" d="M -72.8125 -72.8125 L 72.8125 -72.8125 L 72.8125 72.8125 L -72.8125 72.8125 z" stroke-linecap="round" />
</g>
<g transform="matrix(0.5493562232 0 0 0.5493562232 519.9999999947 440.0000000001)" id="Z421oQqK2g4ToUw62gJBF"  >
<path style="stroke: rgb(53,12,111); stroke-width: 0; stroke-dasharray: none; stroke-linecap: butt; stroke-dashoffset: 0; stroke-linejoin: miter; stroke-miterlimit: 4; fill: rgb(191,127,63); fill-rule: nonzero; opacity: 1;"  transform=" translate(0, 0)" d="M -72.8125 -72.8125 L 72.8125 -72.8125 L 72.8125 72.8125 L -72.8125 72.8125 z" stroke-linecap="round" />
</g>
<g transform="matrix(0.5493562232 0 0 0.5493562232 40.0000000017 520.0000000018)" id="uEl1wpcFJ2HXdmSv6v7kV"  >
<path style="stroke: rgb(53,12,111); stroke-width: 0; stroke-dasharray: none; stroke-linecap: butt; stroke-dashoffset: 0; stroke-linejoin: miter; stroke-miterlimit: 4; fill: rgb(233,211,189); fill-rule: nonzero; opacity: 1;"  transform=" translate(0, 0)" d="M -72.8125 -72.8125 L 72.8125 -72.8125 L 72.8125 72.8125 L -72.8125 72.8125 z" stroke-linecap="round" />
</g>
<g transform="matrix(0.5493562232 0 0 0.5493562232 120.0000000034 520.0000000035)" id="5jwgTgkCv4HG78yd6G-uY"  >
<path style="stroke: rgb(53,12,111); stroke-width: 0; stroke-dasharray: none; stroke-linecap: butt; stroke-dashoffset: 0; stroke-linejoin: miter; stroke-miterlimit: 4; fill: rgb(191,127,63); fill-rule: nonzero; opacity: 1;"  transform=" translate(0, 0)" d="M -72.8125 -72.8125 L 72.8125 -72.8125 L 72.8125 72.8125 L -72.8125 72.8125 z" stroke-linecap="round" />
</g>
<g transform="matrix(0.5493562232 0 0 0.5493562232 200.0000000034 520.0000000035)" id="Ltz6OLQNUozJkz_5H10r1"  >
<path style="stroke: rgb(53,12,111); stroke-width: 0; stroke-dasharray: none; stroke-linecap: butt; stroke-dashoffset: 0; stroke-linejoin: miter; stroke-miterlimit: 4; fill: rgb(233,211,189); fill-rule: nonzero; opacity: 1;"  transform=" translate(0, 0)" d="M -72.8125 -72.8125 L 72.8125 -72.8125 L 72.8125 72.8125 L -72.8125 72.8125 z" stroke-linecap="round" />
</g>
<g transform="matrix(0.5493562232 0 0 0.5493562232 280.0000000053 520.0000000054)" id="JOULLj5yOcJ5rYvakE_kE"  >
<path style="stroke: rgb(53,12,111); stroke-width: 0; stroke-dasharray: none; stroke-linecap: butt; stroke-dashoffset: 0; stroke-linejoin: miter; stroke-miterlimit: 4; fill: rgb(191,127,63); fill-rule: nonzero; opacity: 1;"  transform=" translate(0, 0)" d="M -72.8125 -72.8125 L 72.8125 -72.8125 L 72.8125 72.8125 L -72.8125 72.8125 z" stroke-linecap="round" />
</g>
<g transform="matrix(0.5493562232 0 0 0.5493562232 359.9999999963 520.0000000035)" id="rWx_d4FiJOwBmkfx1Q3SC"  >
<path style="stroke: rgb(53,12,111); stroke-width: 0; stroke-dasharray: none; stroke-linecap: butt; stroke-dashoffset: 0; stroke-linejoin: miter; stroke-miterlimit: 4; fill: rgb(233,211,189); fill-rule: nonzero; opacity: 1;"  transform=" translate(0, 0)" d="M -72.8125 -72.8125 L 72.8125 -72.8125 L 72.8125 72.8125 L -72.8125 72.8125 z" stroke-linecap="round" />
</g>
<g transform="matrix(0.5493562232 0 0 0.5493562232 439.9999999981 520.0000000054)" id="UdzR0uN79FVIh3rVP05xP"  >
<path style="stroke: rgb(53,12,111); stroke-width: 0; stroke-dasharray: none; stroke-linecap: butt; stroke-dashoffset: 0; stroke-linejoin: miter; stroke-miterlimit: 4; fill: rgb(191,127,63); fill-rule: nonzero; opacity: 1;"  transform=" translate(0, 0)" d="M -72.8125 -72.8125 L 72.8125 -72.8125 L 72.8125 72.8125 L -72.8125 72.8125 z" stroke-linecap="round" />
</g>
<g transform="matrix(0.5493562232 0 0 0.5493562232 519.9999999981 520.0000000054)" id="2B7MjQmhW9MjCHSdymUQx"  >
<path style="stroke: rgb(53,12,111); stroke-width: 0; stroke-dasharray: none; stroke-linecap: butt; stroke-dashoffset: 0; stroke-linejoin: miter; stroke-miterlimit: 4; fill: rgb(233,211,189); fill-rule: nonzero; opacity: 1;"  transform=" translate(0, 0)" d="M -72.8125 -72.8125 L 72.8125 -72.8125 L 72.8125 72.8125 L -72.8125 72.8125 z" stroke-linecap="round" />
</g>
<g transform="matrix(0.5493562232 0 0 0.5493562232 599.9999999999 520.0000000071)" id="zWnJ1hMhCPVqMkat_Y0ed"  >
<path style="stroke: rgb(53,12,111); stroke-width: 0; stroke-dasharray: none; stroke-linecap: butt; stroke-dashoffset: 0; stroke-linejoin: miter; stroke-miterlimit: 4; fill: rgb(191,127,63); fill-rule: nonzero; opacity: 1;"  transform=" translate(0, 0)" d="M -72.8125 -72.8125 L 72.8125 -72.8125 L 72.8125 72.8125 L -72.8125 72.8125 z" stroke-linecap="round" />
</g>
<g transform="matrix(0.5493562232 0 0 0.5493562232 40.0000000034 599.9999999965)" id="aiWjJJnfYBba9JbnbOg70"  >
<path style="stroke: rgb(53,12,111); stroke-width: 0; stroke-dasharray: none; stroke-linecap: butt; stroke-dashoffset: 0; stroke-linejoin: miter; stroke-miterlimit: 4; fill: rgb(191,127,63); fill-rule: nonzero; opacity: 1;"  transform=" translate(0, 0)" d="M -72.8125 -72.8125 L 72.8125 -72.8125 L 72.8125 72.8125 L -72.8125 72.8125 z" stroke-linecap="round" />
</g>
<g transform="matrix(0.5493562232 0 0 0.5493562232 120.0000000034 599.9999999965)" id="IvCTz7762aZILdOY1otZI"  >
<path style="stroke: rgb(53,12,111); stroke-width: 0; stroke-dasharray: none; stroke-linecap: butt; stroke-dashoffset: 0; stroke-linejoin: miter; stroke-miterlimit: 4; fill: rgb(233,211,189); fill-rule: nonzero; opacity: 1;"  transform=" translate(0, 0)" d="M -72.8125 -72.8125 L 72.8125 -72.8125 L 72.8125 72.8125 L -72.8125 72.8125 z" stroke-linecap="round" />
</g>
<g transform="matrix(0.5493562232 0 0 0.5493562232 200.0000000053 599.9999999983)" id="jko7V3zKQApnerN7FUNIC"  >
<path style="stroke: rgb(53,12,111); stroke-width: 0; stroke-dasharray: none; stroke-linecap: butt; stroke-dashoffset: 0; stroke-linejoin: miter; stroke-miterlimit: 4; fill: rgb(191,127,63); fill-rule: nonzero; opacity: 1;"  transform=" translate(0, 0)" d="M -72.8125 -72.8125 L 72.8125 -72.8125 L 72.8125 72.8125 L -72.8125 72.8125 z" stroke-linecap="round" />
</g>
<g transform="matrix(0.5493562232 0 0 0.5493562232 279.9999999963 599.9999999965)" id="SpDBd-9DjFI5yoKg2uGt7"  >
<path style="stroke: rgb(53,12,111); stroke-width: 0; stroke-dasharray: none; stroke-linecap: butt; stroke-dashoffset: 0; stroke-linejoin: miter; stroke-miterlimit: 4; fill: rgb(233,211,189); fill-rule: nonzero; opacity: 1;"  transform=" translate(0, 0)" d="M -72.8125 -72.8125 L 72.8125 -72.8125 L 72.8125 72.8125 L -72.8125 72.8125 z" stroke-linecap="round" />
</g>
<g transform="matrix(0.5493562232 0 0 0.5493562232 359.9999999981 599.9999999983)" id="zO7-59v8F--wSv5YlWsct"  >
<path style="stroke: rgb(53,12,111); stroke-width: 0; stroke-dasharray: none; stroke-linecap: butt; stroke-dashoffset: 0; stroke-linejoin: miter; stroke-miterlimit: 4; fill: rgb(191,127,63); fill-rule: nonzero; opacity: 1;"  transform=" translate(0, 0)" d="M -72.8125 -72.8125 L 72.8125 -72.8125 L 72.8125 72.8125 L -72.8125 72.8125 z" stroke-linecap="round" />
</g>
<g transform="matrix(0.5493562232 0 0 0.5493562232 439.9999999981 599.9999999983)" id="IUk3iZAGworXcd4yn6Vsa"  >
<path style="stroke: rgb(53,12,111); stroke-width: 0; stroke-dasharray: none; stroke-linecap: butt; stroke-dashoffset: 0; stroke-linejoin: miter; stroke-miterlimit: 4; fill: rgb(233,211,189); fill-rule: nonzero; opacity: 1;"  transform=" translate(0, 0)" d="M -72.8125 -72.8125 L 72.8125 -72.8125 L 72.8125 72.8125 L -72.8125 72.8125 z" stroke-linecap="round" />
</g>
<g transform="matrix(0.5493562232 0 0 0.5493562232 600.0000000034 600.0000000035)" id="8xRICBffJLxdYWxBz6I9x"  >
<path style="stroke: rgb(53,12,111); stroke-width: 0; stroke-dasharray: none; stroke-linecap: butt; stroke-dashoffset: 0; stroke-linejoin: miter; stroke-miterlimit: 4; fill: rgb(233,211,189); fill-rule: nonzero; opacity: 1;"  transform=" translate(0, 0)" d="M -72.8125 -72.8125 L 72.8125 -72.8125 L 72.8125 72.8125 L -72.8125 72.8125 z" stroke-linecap="round" />
</g>
<g transform="matrix(0.5493562232 0 0 0.5493562232 519.9999999999 600.0000000001)" id="IvXtIdgwQFYvIsWxweMBK"  >
<path style="stroke: rgb(53,12,111); stroke-width: 0; stroke-dasharray: none; stroke-linecap: butt; stroke-dashoffset: 0; stroke-linejoin: miter; stroke-miterlimit: 4; fill: rgb(191,127,63); fill-rule: nonzero; opacity: 1;"  transform=" translate(0, 0)" d="M -72.8125 -72.8125 L 72.8125 -72.8125 L 72.8125 72.8125 L -72.8125 72.8125 z" stroke-linecap="round" />
</g>
</svg>