<?xml version="1.0" encoding="UTF-8" standalone="no"?>
<svg
   class="card"
   face="AC"
   height="67.801041"
   preserveAspectRatio="none"
   viewBox="-120 -168 43.399998 67.801041"
   width="43.399998"
   version="1.1"
   id="svg5"
   sodipodi:docname="a.svg"
   inkscape:version="1.4.2 (f4327f4, 2025-05-13)"
   xmlns:inkscape="http://www.inkscape.org/namespaces/inkscape"
   xmlns:sodipodi="http://sodipodi.sourceforge.net/DTD/sodipodi-0.dtd"
   xmlns:xlink="http://www.w3.org/1999/xlink"
   xmlns="http://www.w3.org/2000/svg"
   xmlns:svg="http://www.w3.org/2000/svg">
  <sodipodi:namedview
     id="namedview5"
     pagecolor="#ffffff"
     bordercolor="#000000"
     borderopacity="0.25"
     inkscape:showpageshadow="2"
     inkscape:pageopacity="0.0"
     inkscape:pagecheckerboard="0"
     inkscape:deskcolor="#d1d1d1"
     inkscape:document-units="in"
     inkscape:zoom="3.5505952"
     inkscape:cx="120.1207"
     inkscape:cy="168"
     inkscape:window-width="2560"
     inkscape:window-height="1411"
     inkscape:window-x="-9"
     inkscape:window-y="-9"
     inkscape:window-maximized="1"
     inkscape:current-layer="svg5" />
  <defs
     id="defs2">
    <symbol
       id="SCA"
       viewBox="-600 -600 1200 1200"
       preserveAspectRatio="xMinYMid">
      <path
         d="m 30,150 c 5,235 55,250 100,350 H -130 C -85,400 -35,385 -30,150 a 10,10 0 0 0 -20,0 210,210 0 1 1 -74,-201 10,10 0 0 0 14,-14 230,230 0 1 1 220,0 10,10 0 0 0 14,14 210,210 0 1 1 -74,201 10,10 0 0 0 -20,0 z"
         fill="#000000"
         id="path1" />
    </symbol>
    <symbol
       id="VCA"
       viewBox="-500 -500 1000 1000"
       preserveAspectRatio="xMinYMid">
      <path
         d="m -270,460 h 160 M -200,450 0,-460 200,450 m -90,10 H 270 M -120,130 h 240"
         stroke="#000000"
         stroke-width="80"
         stroke-linecap="square"
         stroke-miterlimit="1.5"
         fill="none"
         id="path2" />
    </symbol>
  </defs>
  <use
     xlink:href="#VCA"
     height="70"
     width="70"
     x="-122"
     y="-156"
     id="use2"
     transform="translate(-11.3,-14.19896)" />
</svg>
