<?xml version="1.0" encoding="UTF-8" standalone="no"?>
<svg
   version="1.1"
   width="144"
   height="144"
   viewBox="0 0 144 144"
   xml:space="preserve"
   id="svg70"
   sodipodi:docname="any.svg"
   inkscape:version="1.4.2 (f4327f4, 2025-05-13)"
   inkscape:export-filename="any.png"
   inkscape:export-xdpi="96"
   inkscape:export-ydpi="96"
   xmlns:inkscape="http://www.inkscape.org/namespaces/inkscape"
   xmlns:sodipodi="http://sodipodi.sourceforge.net/DTD/sodipodi-0.dtd"
   xmlns:xlink="http://www.w3.org/1999/xlink"
   xmlns="http://www.w3.org/2000/svg"
   xmlns:svg="http://www.w3.org/2000/svg"><sodipodi:namedview
   id="namedview1"
   pagecolor="#ffffff"
   bordercolor="#000000"
   borderopacity="0.25"
   inkscape:showpageshadow="2"
   inkscape:pageopacity="0.0"
   inkscape:pagecheckerboard="0"
   inkscape:deskcolor="#d1d1d1"
   inkscape:zoom="6.5393674"
   inkscape:cx="72.942836"
   inkscape:cy="73.172216"
   inkscape:window-width="2560"
   inkscape:window-height="1411"
   inkscape:window-x="-9"
   inkscape:window-y="-9"
   inkscape:window-maximized="1"
   inkscape:current-layer="svg70" />
<desc
   id="desc1">Created with Fabric.js 5.3.0</desc>
<defs
   id="defs1">
<symbol
   id="SDJ"
   viewBox="-600 -600 1200 1200"
   preserveAspectRatio="xMinYMid"><path
     d="M -400,0 C -350,0 0,-450 0,-500 0,-450 350,0 400,0 350,0 0,450 0,500 0,450 -350,0 -400,0 Z"
     fill="#ff0000"
     id="path1" /></symbol><symbol
   id="VDJ"
   viewBox="-500 -500 1000 1000"
   preserveAspectRatio="xMinYMid"><path
     d="m 50,-460 h 200 m -100,0 v 710 a 200,200 0 0 1 -400,0 v -30"
     stroke="#ff0000"
     stroke-width="80"
     stroke-linecap="square"
     stroke-miterlimit="1.5"
     fill="none"
     id="path2" /></symbol><symbol
   id="SDQ"
   viewBox="-600 -600 1200 1200"
   preserveAspectRatio="xMinYMid"><path
     d="M -400,0 C -350,0 0,-450 0,-500 0,-450 350,0 400,0 350,0 0,450 0,500 0,450 -350,0 -400,0 Z"
     fill="#ff0000"
     id="path1-9" /></symbol><symbol
   id="VDQ"
   viewBox="-500 -500 1000 1000"
   preserveAspectRatio="xMinYMid"><path
     d="m -260,100 c 300,0 220,360 520,360 M -175,0 v -285 a 175,175 0 0 1 350,0 v 570 a 175,175 0 0 1 -350,0 z"
     stroke="#ff0000"
     stroke-width="80"
     stroke-linecap="square"
     stroke-miterlimit="1.5"
     fill="none"
     id="path2-9" /></symbol><symbol
   id="SSQ"
   viewBox="-600 -600 1200 1200"
   preserveAspectRatio="xMinYMid"><path
     d="m 0,-500 c 100,250 355,400 355,685 a 150,150 0 0 1 -300,0 10,10 0 0 0 -20,0 c 0,200 50,215 95,315 h -260 c 45,-100 95,-115 95,-315 a 10,10 0 0 0 -20,0 150,150 0 0 1 -300,0 c 0,-285 255,-435 355,-685 z"
     fill="#000000"
     id="path1-4" /></symbol><symbol
   id="VSQ"
   viewBox="-500 -500 1000 1000"
   preserveAspectRatio="xMinYMid"><path
     d="m -260,100 c 300,0 220,360 520,360 M -175,0 v -285 a 175,175 0 0 1 350,0 v 570 a 175,175 0 0 1 -350,0 z"
     stroke="#000000"
     stroke-width="80"
     stroke-linecap="square"
     stroke-miterlimit="1.5"
     fill="none"
     id="path2-1" /></symbol><symbol
   id="SDJ-2"
   viewBox="-600 -600 1200 1200"
   preserveAspectRatio="xMinYMid"><path
     d="M -400,0 C -350,0 0,-450 0,-500 0,-450 350,0 400,0 350,0 0,450 0,500 0,450 -350,0 -400,0 Z"
     fill="#ff0000"
     id="path1-3" /></symbol><symbol
   id="VDJ-7"
   viewBox="-500 -500 1000 1000"
   preserveAspectRatio="xMinYMid"><path
     d="m 50,-460 h 200 m -100,0 v 710 a 200,200 0 0 1 -400,0 v -30"
     stroke="#ff0000"
     stroke-width="80"
     stroke-linecap="square"
     stroke-miterlimit="1.5"
     fill="none"
     id="path2-4" /></symbol><symbol
   id="SSQ-5"
   viewBox="-600 -600 1200 1200"
   preserveAspectRatio="xMinYMid"><path
     d="m 0,-500 c 100,250 355,400 355,685 a 150,150 0 0 1 -300,0 10,10 0 0 0 -20,0 c 0,200 50,215 95,315 h -260 c 45,-100 95,-115 95,-315 a 10,10 0 0 0 -20,0 150,150 0 0 1 -300,0 c 0,-285 255,-435 355,-685 z"
     fill="#000000"
     id="path1-1" /></symbol><symbol
   id="VSQ-3"
   viewBox="-500 -500 1000 1000"
   preserveAspectRatio="xMinYMid"><path
     d="m -260,100 c 300,0 220,360 520,360 M -175,0 v -285 a 175,175 0 0 1 350,0 v 570 a 175,175 0 0 1 -350,0 z"
     stroke="#000000"
     stroke-width="80"
     stroke-linecap="square"
     stroke-miterlimit="1.5"
     fill="none"
     id="path2-6" /></symbol></defs>


<g
   id="g3"
   transform="matrix(0.30783275,0,0,0.30200266,-16.426152,-30.785596)"><use
     xlink:href="#VDJ-7"
     height="70"
     width="70"
     x="-122"
     y="-156"
     id="use2"
     style="stroke-width:5.03393;stroke-dasharray:none"
     transform="matrix(3.6880483,0,0,3.7054884,517.00446,679.99589)" /><use
     xlink:href="#SDJ-2"
     height="58.557999"
     width="58.557999"
     x="-116.279"
     y="-81"
     id="use3"
     style="stroke-width:5.03393;stroke-dasharray:none"
     transform="matrix(3.6880483,0,0,3.7054884,517.00446,679.99589)" /></g><g
   id="g4"
   transform="matrix(-0.29794593,0,0,0.30174208,231.24657,-30.774115)"><use
     xlink:href="#VSQ-3"
     height="70"
     width="70"
     x="-122"
     y="-156"
     id="use2-4"
     style="stroke-width:5.03571;stroke-dasharray:none"
     transform="matrix(3.6877226,0,0,3.7087013,761.097,680.54544)" /><use
     xlink:href="#SSQ-5"
     height="58.557999"
     width="58.557999"
     x="-116.279"
     y="-81"
     id="use3-0"
     style="stroke-width:5.03571;stroke-dasharray:none"
     transform="matrix(3.6877226,0,0,3.7087013,761.097,680.54544)" /></g></svg>
