<?xml version="1.0" encoding="UTF-8" standalone="no"?>
<svg
   class="card"
   face="AS"
   height="3.5in"
   preserveAspectRatio="none"
   viewBox="-120 -168 240 336"
   width="2.5in"
   version="1.1"
   id="svg5"
   sodipodi:docname="as.svg"
   inkscape:version="1.4.2 (f4327f4, 2025-05-13)"
   xmlns:inkscape="http://www.inkscape.org/namespaces/inkscape"
   xmlns:sodipodi="http://sodipodi.sourceforge.net/DTD/sodipodi-0.dtd"
   xmlns:xlink="http://www.w3.org/1999/xlink"
   xmlns="http://www.w3.org/2000/svg"
   xmlns:svg="http://www.w3.org/2000/svg">
  <sodipodi:namedview
     id="namedview5"
     pagecolor="#ffffff"
     bordercolor="#000000"
     borderopacity="0.25"
     inkscape:showpageshadow="2"
     inkscape:pageopacity="0.0"
     inkscape:pagecheckerboard="0"
     inkscape:deskcolor="#d1d1d1"
     inkscape:document-units="in"
     showgrid="false"
     inkscape:zoom="3.5505952"
     inkscape:cx="120.1207"
     inkscape:cy="168"
     inkscape:window-width="2560"
     inkscape:window-height="1411"
     inkscape:window-x="-9"
     inkscape:window-y="-9"
     inkscape:window-maximized="1"
     inkscape:current-layer="svg5" />
  <defs
     id="defs2">
    <symbol
       id="SSA"
       viewBox="-600 -600 1200 1200"
       preserveAspectRatio="xMinYMid">
      <path
         d="M0 -500C100 -250 355 -100 355 185A150 150 0 0 1 55 185A10 10 0 0 0 35 185C35 385 85 400 130 500L-130 500C-85 400 -35 385 -35 185A10 10 0 0 0 -55 185A150 150 0 0 1 -355 185C-355 -100 -100 -250 0 -500Z"
         fill="black"
         id="path1" />
    </symbol>
    <symbol
       id="VSA"
       viewBox="-500 -500 1000 1000"
       preserveAspectRatio="xMinYMid">
      <path
         d="M-270 460L-110 460M-200 450L0 -460L200 450M110 460L270 460M-120 130L120 130"
         stroke="black"
         stroke-width="80"
         stroke-linecap="square"
         stroke-miterlimit="1.5"
         fill="none"
         id="path2" />
    </symbol>
  </defs>
  <rect
     width="235.2"
     height="331.20001"
     x="-117.6"
     y="-165.60001"
     rx="12"
     ry="12"
     fill="#ffffff"
     stroke="#000000"
     id="rect2"
     style="stroke-width:4.8;stroke-dasharray:none" />
  <use
     xlink:href="#VSA"
     height="70"
     width="70"
     x="-122"
     y="-156"
     id="use2" />
  <use
     xlink:href="#SSA"
     height="58.558"
     width="58.558"
     x="-116.279"
     y="-81"
     id="use3" />
  <g
     transform="rotate(180)"
     id="g5">
    <use
       xlink:href="#VSA"
       height="70"
       width="70"
       x="-122"
       y="-156"
       id="use4" />
    <use
       xlink:href="#SSA"
       height="58.558"
       width="58.558"
       x="-116.279"
       y="-81"
       id="use5" />
  </g>
</svg>
