<?xml version="1.0" encoding="UTF-8" standalone="no"?>
<svg
   height="32.00005"
   viewBox="0 -960 640 1280.002"
   width="16"
   fill="#000000"
   version="1.1"
   id="svg1"
   sodipodi:docname="slide.svg"
   inkscape:version="1.4.2 (f4327f4, 2025-05-13)"
   xmlns:inkscape="http://www.inkscape.org/namespaces/inkscape"
   xmlns:sodipodi="http://sodipodi.sourceforge.net/DTD/sodipodi-0.dtd"
   xmlns="http://www.w3.org/2000/svg"
   xmlns:svg="http://www.w3.org/2000/svg">
  <defs
     id="defs1" />
  <sodipodi:namedview
     id="namedview1"
     pagecolor="#ffffff"
     bordercolor="#000000"
     borderopacity="0.25"
     inkscape:showpageshadow="2"
     inkscape:pageopacity="0.0"
     inkscape:pagecheckerboard="0"
     inkscape:deskcolor="#d1d1d1"
     showgrid="false"
     inkscape:zoom="35.149099"
     inkscape:cx="5.8749727"
     inkscape:cy="16.003255"
     inkscape:window-width="2560"
     inkscape:window-height="1411"
     inkscape:window-x="-9"
     inkscape:window-y="-9"
     inkscape:window-maximized="1"
     inkscape:current-layer="svg1" />
  <path
     id="path1"
     d="M 131.54,-188.478 0,-320.018 l 131.54,-131.54 28.31,27.54 -83,84 H 360 v 40 H 76.85 l 83,84 z m 351.54,468.48 H 600 v -1200 H 483.08 Z m -40,40 v -1280 H 640 v 1280 z M 295.38,-910.77 V -960 h 49.24 v 49.23 z m 0,1230.772 v -49.23 h 49.24 v 49.23 z M 147.69,-910.77 V -960 h 49.23 v 49.23 z m 0,1230.772 v -49.23 h 49.23 v 49.23 z M 0,-910.77 V -960 h 49.23 v 49.23 z M 0,320.002 v -49.23 h 49.23 v 49.23 z m 483.08,-40 H 600 Z" />
</svg>
