<?xml version="1.0" encoding="UTF-8" standalone="no"?>
<svg
   height="1in"
   width="1in"
   viewBox="-500 -500 1000 1000"
   version="1.1"
   id="svg1"
   sodipodi:docname="club.svg"
   inkscape:version="1.4.2 (f4327f4, 2025-05-13)"
   xmlns:inkscape="http://www.inkscape.org/namespaces/inkscape"
   xmlns:sodipodi="http://sodipodi.sourceforge.net/DTD/sodipodi-0.dtd"
   xmlns="http://www.w3.org/2000/svg"
   xmlns:svg="http://www.w3.org/2000/svg">
  <defs
     id="defs1" />
  <sodipodi:namedview
     id="namedview1"
     pagecolor="#ffffff"
     bordercolor="#000000"
     borderopacity="0.25"
     inkscape:showpageshadow="2"
     inkscape:pageopacity="0.0"
     inkscape:pagecheckerboard="0"
     inkscape:deskcolor="#d1d1d1"
     inkscape:document-units="in"
     inkscape:zoom="12.427083"
     inkscape:cx="48"
     inkscape:cy="48"
     inkscape:window-width="2560"
     inkscape:window-height="1411"
     inkscape:window-x="-9"
     inkscape:window-y="-9"
     inkscape:window-maximized="1"
     inkscape:current-layer="svg1" />
  <path
     d="M 30,148.94336 C 35,384.65282 85,399.6981 130,500 H -130 C -85,399.6981 -35,384.65282 -30,148.94336 a 10,10.03019 0 0 0 -20,0 210,210.63399 0 1 1 -74,-201.606817 10,10.03019 0 0 0 14,-14.042266 230,230.69437 0 1 1 220,0 10,10.03019 0 0 0 14,14.042266 210,210.63399 0 1 1 -74,201.606817 10,10.03019 0 0 0 -20,0 z"
     fill="#000000"
     id="path1"
     style="stroke-width:1.00151" />
</svg>
