<?xml version="1.0" encoding="UTF-8" standalone="no" ?>
<!DOCTYPE svg PUBLIC "-//W3C//DTD SVG 1.1//EN" "http://www.w3.org/Graphics/SVG/1.1/DTD/svg11.dtd">
<svg xmlns="http://www.w3.org/2000/svg" xmlns:xlink="http://www.w3.org/1999/xlink" version="1.1" width="640" height="640" viewBox="0 0 640 640" xml:space="preserve">
<desc>Created with Fabric.js 5.3.0</desc>
<defs>
</defs>
<g transform="matrix(1.219047619 0 0 1.219047619 320 320)" id="lO6twLA0_x2XKWw65Gqxf"  >
<path style="stroke: rgb(117,159,50); stroke-width: 0; stroke-dasharray: none; stroke-linecap: butt; stroke-dashoffset: 0; stroke-linejoin: miter; stroke-miterlimit: 4; fill: rgb(255,255,255); fill-rule: nonzero; opacity: 1;"  transform=" translate(0, 0)" d="M -262.5 -262.5 L 262.5 -262.5 L 262.5 262.5 L -262.5 262.5 z" stroke-linecap="round" />
</g>
<g transform="matrix(3.0372881356 0 0 3.0372881356 64.0000000002 64.0000000002)" id="s5bDwyZUb_gGKCn-pLEq4"  >
<path style="stroke: rgb(212,5,148); stroke-width: 0; stroke-dasharray: none; stroke-linecap: butt; stroke-dashoffset: 0; stroke-linejoin: miter; stroke-miterlimit: 4; fill: rgb(124,179,66); fill-rule: nonzero; opacity: 1;"  transform=" translate(0, 0)" d="M -18.4375 -18.4375 L 18.4375 -18.4375 L 18.4375 18.4375 L -18.4375 18.4375 z" stroke-linecap="round" />
</g>
<g transform="matrix(3.0372881356 0 0 3.0372881356 192.0000000001 64.0000000001)" id="XbhrIdeQBrEsUFMILdCpD"  >
<path style="stroke: rgb(212,5,148); stroke-width: 0; stroke-dasharray: none; stroke-linecap: butt; stroke-dashoffset: 0; stroke-linejoin: miter; stroke-miterlimit: 4; fill: rgb(124,179,66); fill-rule: nonzero; opacity: 1;"  transform=" translate(0, 0)" d="M -18.4375 -18.4375 L 18.4375 -18.4375 L 18.4375 18.4375 L -18.4375 18.4375 z" stroke-linecap="round" />
</g>
<g transform="matrix(3.0372881356 0 0 3.0372881356 320 64.0000000001)" id="qgYPvIjxWAUmMZNCt9XJi"  >
<path style="stroke: rgb(212,5,148); stroke-width: 0; stroke-dasharray: none; stroke-linecap: butt; stroke-dashoffset: 0; stroke-linejoin: miter; stroke-miterlimit: 4; fill: rgb(124,179,66); fill-rule: nonzero; opacity: 1;"  transform=" translate(0, 0)" d="M -18.4375 -18.4375 L 18.4375 -18.4375 L 18.4375 18.4375 L -18.4375 18.4375 z" stroke-linecap="round" />
</g>
<g transform="matrix(3.0372881356 0 0 3.0372881356 448.0000000001 64.0000000001)" id="SJ3d3-7toztuyU0r3qhfU"  >
<path style="stroke: rgb(212,5,148); stroke-width: 0; stroke-dasharray: none; stroke-linecap: butt; stroke-dashoffset: 0; stroke-linejoin: miter; stroke-miterlimit: 4; fill: rgb(124,179,66); fill-rule: nonzero; opacity: 1;"  transform=" translate(0, 0)" d="M -18.4375 -18.4375 L 18.4375 -18.4375 L 18.4375 18.4375 L -18.4375 18.4375 z" stroke-linecap="round" />
</g>
<g transform="matrix(3.0372881356 0 0 3.0372881356 576.0000000001 64.0000000001)" id="EGk4s-tFWHB03Oa8KCQzp"  >
<path style="stroke: rgb(212,5,148); stroke-width: 0; stroke-dasharray: none; stroke-linecap: butt; stroke-dashoffset: 0; stroke-linejoin: miter; stroke-miterlimit: 4; fill: rgb(124,179,66); fill-rule: nonzero; opacity: 1;"  transform=" translate(0, 0)" d="M -18.4375 -18.4375 L 18.4375 -18.4375 L 18.4375 18.4375 L -18.4375 18.4375 z" stroke-linecap="round" />
</g>
<g transform="matrix(3.0372881356 0 0 3.0372881356 64.0000000001 192.0000000002)" id="5OPxeQZflZ5flbBoVUTqM"  >
<path style="stroke: rgb(212,5,148); stroke-width: 0; stroke-dasharray: none; stroke-linecap: butt; stroke-dashoffset: 0; stroke-linejoin: miter; stroke-miterlimit: 4; fill: rgb(124,179,66); fill-rule: nonzero; opacity: 1;"  transform=" translate(0, 0)" d="M -18.4375 -18.4375 L 18.4375 -18.4375 L 18.4375 18.4375 L -18.4375 18.4375 z" stroke-linecap="round" />
</g>
<g transform="matrix(3.0372881356 0 0 3.0372881356 319.9999999998 192.0000000001)" id="d_Z2j9H6BiDDOHwqPlFHg"  >
<path style="stroke: rgb(212,5,148); stroke-width: 0; stroke-dasharray: none; stroke-linecap: butt; stroke-dashoffset: 0; stroke-linejoin: miter; stroke-miterlimit: 4; fill: rgb(124,179,66); fill-rule: nonzero; opacity: 1;"  transform=" translate(0, 0)" d="M -18.4375 -18.4375 L 18.4375 -18.4375 L 18.4375 18.4375 L -18.4375 18.4375 z" stroke-linecap="round" />
</g>
<g transform="matrix(3.0372881356 0 0 3.0372881356 575.9999999999 192.0000000001)" id="j5r6AqCw5OzT4cHP2XYRq"  >
<path style="stroke: rgb(212,5,148); stroke-width: 0; stroke-dasharray: none; stroke-linecap: butt; stroke-dashoffset: 0; stroke-linejoin: miter; stroke-miterlimit: 4; fill: rgb(124,179,66); fill-rule: nonzero; opacity: 1;"  transform=" translate(0, 0)" d="M -18.4375 -18.4375 L 18.4375 -18.4375 L 18.4375 18.4375 L -18.4375 18.4375 z" stroke-linecap="round" />
</g>
<g transform="matrix(3.0372881356 0 0 3.0372881356 64.0000000001 1424.0000000001)" id="eh_DDNq0vonD_tHnpWIcY"  >
<path style="stroke: rgb(212,5,148); stroke-width: 0; stroke-dasharray: none; stroke-linecap: butt; stroke-dashoffset: 0; stroke-linejoin: miter; stroke-miterlimit: 4; fill: rgb(124,179,66); fill-rule: nonzero; opacity: 1;"  transform=" translate(0, 0)" d="M -18.4375 -18.4375 L 18.4375 -18.4375 L 18.4375 18.4375 L -18.4375 18.4375 z" stroke-linecap="round" />
</g>
<g transform="matrix(3.0372881356 0 0 3.0372881356 192.0000000002 1424.0000000002)" id="kWPnrd0RZkbzqzX_jPx8Z"  >
<path style="stroke: rgb(212,5,148); stroke-width: 0; stroke-dasharray: none; stroke-linecap: butt; stroke-dashoffset: 0; stroke-linejoin: miter; stroke-miterlimit: 4; fill: rgb(124,179,66); fill-rule: nonzero; opacity: 1;"  transform=" translate(0, 0)" d="M -18.4375 -18.4375 L 18.4375 -18.4375 L 18.4375 18.4375 L -18.4375 18.4375 z" stroke-linecap="round" />
</g>
<g transform="matrix(3.0372881356 0 0 3.0372881356 320.0000000001 1424.0000000002)" id="OH2g7eZmN_Uizn08AoLVW"  >
<path style="stroke: rgb(212,5,148); stroke-width: 0; stroke-dasharray: none; stroke-linecap: butt; stroke-dashoffset: 0; stroke-linejoin: miter; stroke-miterlimit: 4; fill: rgb(124,179,66); fill-rule: nonzero; opacity: 1;"  transform=" translate(0, 0)" d="M -18.4375 -18.4375 L 18.4375 -18.4375 L 18.4375 18.4375 L -18.4375 18.4375 z" stroke-linecap="round" />
</g>
<g transform="matrix(3.0372881356 0 0 3.0372881356 448.0000000002 1424.0000000002)" id="8sdufvhNJ75jpXIWrN_0n"  >
<path style="stroke: rgb(212,5,148); stroke-width: 0; stroke-dasharray: none; stroke-linecap: butt; stroke-dashoffset: 0; stroke-linejoin: miter; stroke-miterlimit: 4; fill: rgb(124,179,66); fill-rule: nonzero; opacity: 1;"  transform=" translate(0, 0)" d="M -18.4375 -18.4375 L 18.4375 -18.4375 L 18.4375 18.4375 L -18.4375 18.4375 z" stroke-linecap="round" />
</g>
<g transform="matrix(3.0372881356 0 0 3.0372881356 576.0000000002 1424.0000000002)" id="a3PDpzEP1dHbbZT1aXJwp"  >
<path style="stroke: rgb(212,5,148); stroke-width: 0; stroke-dasharray: none; stroke-linecap: butt; stroke-dashoffset: 0; stroke-linejoin: miter; stroke-miterlimit: 4; fill: rgb(124,179,66); fill-rule: nonzero; opacity: 1;"  transform=" translate(0, 0)" d="M -18.4375 -18.4375 L 18.4375 -18.4375 L 18.4375 18.4375 L -18.4375 18.4375 z" stroke-linecap="round" />
</g>
<g transform="matrix(3.0372881356 0 0 3.0372881356 64.0000000003 320.0000000001)" id="FcxYnvas5FGdW9ehmg2ks"  >
<path style="stroke: rgb(212,5,148); stroke-width: 0; stroke-dasharray: none; stroke-linecap: butt; stroke-dashoffset: 0; stroke-linejoin: miter; stroke-miterlimit: 4; fill: rgb(124,179,66); fill-rule: nonzero; opacity: 1;"  transform=" translate(0, 0)" d="M -18.4375 -18.4375 L 18.4375 -18.4375 L 18.4375 18.4375 L -18.4375 18.4375 z" stroke-linecap="round" />
</g>
<g transform="matrix(3.0372881356 0 0 3.0372881356 192.0000000002 319.9999999999)" id="VFqQjMZW47j2uMkIznezr"  >
<path style="stroke: rgb(212,5,148); stroke-width: 0; stroke-dasharray: none; stroke-linecap: butt; stroke-dashoffset: 0; stroke-linejoin: miter; stroke-miterlimit: 4; fill: rgb(124,179,66); fill-rule: nonzero; opacity: 1;"  transform=" translate(0, 0)" d="M -18.4375 -18.4375 L 18.4375 -18.4375 L 18.4375 18.4375 L -18.4375 18.4375 z" stroke-linecap="round" />
</g>
<g transform="matrix(3.0372881356 0 0 3.0372881356 448.0000000002 319.9999999999)" id="rZUOvRjMP1waU3zt1mZzt"  >
<path style="stroke: rgb(212,5,148); stroke-width: 0; stroke-dasharray: none; stroke-linecap: butt; stroke-dashoffset: 0; stroke-linejoin: miter; stroke-miterlimit: 4; fill: rgb(124,179,66); fill-rule: nonzero; opacity: 1;"  transform=" translate(0, 0)" d="M -18.4375 -18.4375 L 18.4375 -18.4375 L 18.4375 18.4375 L -18.4375 18.4375 z" stroke-linecap="round" />
</g>
<g transform="matrix(3.0372881356 0 0 3.0372881356 576.0000000002 319.9999999999)" id="RZlN-GUsbnlTlMuLd6MW8"  >
<path style="stroke: rgb(212,5,148); stroke-width: 0; stroke-dasharray: none; stroke-linecap: butt; stroke-dashoffset: 0; stroke-linejoin: miter; stroke-miterlimit: 4; fill: rgb(124,179,66); fill-rule: nonzero; opacity: 1;"  transform=" translate(0, 0)" d="M -18.4375 -18.4375 L 18.4375 -18.4375 L 18.4375 18.4375 L -18.4375 18.4375 z" stroke-linecap="round" />
</g>
<g transform="matrix(3.0372881356 0 0 3.0372881356 64 448.0000000002)" id="XsnWU-spDWkdOhkugUJ_U"  >
<path style="stroke: rgb(212,5,148); stroke-width: 0; stroke-dasharray: none; stroke-linecap: butt; stroke-dashoffset: 0; stroke-linejoin: miter; stroke-miterlimit: 4; fill: rgb(124,179,66); fill-rule: nonzero; opacity: 1;"  transform=" translate(0, 0)" d="M -18.4375 -18.4375 L 18.4375 -18.4375 L 18.4375 18.4375 L -18.4375 18.4375 z" stroke-linecap="round" />
</g>
<g transform="matrix(3.0372881356 0 0 3.0372881356 319.9999999997 448.0000000001)" id="cVdSMM-uZgcpUsrm6I0l6"  >
<path style="stroke: rgb(212,5,148); stroke-width: 0; stroke-dasharray: none; stroke-linecap: butt; stroke-dashoffset: 0; stroke-linejoin: miter; stroke-miterlimit: 4; fill: rgb(124,179,66); fill-rule: nonzero; opacity: 1;"  transform=" translate(0, 0)" d="M -18.4375 -18.4375 L 18.4375 -18.4375 L 18.4375 18.4375 L -18.4375 18.4375 z" stroke-linecap="round" />
</g>
<g transform="matrix(3.0372881356 0 0 3.0372881356 575.9999999999 448.0000000001)" id="FQ0m7I04_BrYyGagU15rQ"  >
<path style="stroke: rgb(212,5,148); stroke-width: 0; stroke-dasharray: none; stroke-linecap: butt; stroke-dashoffset: 0; stroke-linejoin: miter; stroke-miterlimit: 4; fill: rgb(124,179,66); fill-rule: nonzero; opacity: 1;"  transform=" translate(0, 0)" d="M -18.4375 -18.4375 L 18.4375 -18.4375 L 18.4375 18.4375 L -18.4375 18.4375 z" stroke-linecap="round" />
</g>
<g transform="matrix(3.0372881356 0 0 3.0372881356 64.0000000003 576.0000000001)" id="XybUO6RhFVHQdvQt96pPe"  >
<path style="stroke: rgb(212,5,148); stroke-width: 0; stroke-dasharray: none; stroke-linecap: butt; stroke-dashoffset: 0; stroke-linejoin: miter; stroke-miterlimit: 4; fill: rgb(124,179,66); fill-rule: nonzero; opacity: 1;"  transform=" translate(0, 0)" d="M -18.4375 -18.4375 L 18.4375 -18.4375 L 18.4375 18.4375 L -18.4375 18.4375 z" stroke-linecap="round" />
</g>
<g transform="matrix(3.0372881356 0 0 3.0372881356 192.0000000002 576)" id="PxspZrY98iOzLOd2voJce"  >
<path style="stroke: rgb(212,5,148); stroke-width: 0; stroke-dasharray: none; stroke-linecap: butt; stroke-dashoffset: 0; stroke-linejoin: miter; stroke-miterlimit: 4; fill: rgb(124,179,66); fill-rule: nonzero; opacity: 1;"  transform=" translate(0, 0)" d="M -18.4375 -18.4375 L 18.4375 -18.4375 L 18.4375 18.4375 L -18.4375 18.4375 z" stroke-linecap="round" />
</g>
<g transform="matrix(3.0372881356 0 0 3.0372881356 320 576)" id="OEGPAZ3C6_qASUezq_P-K"  >
<path style="stroke: rgb(212,5,148); stroke-width: 0; stroke-dasharray: none; stroke-linecap: butt; stroke-dashoffset: 0; stroke-linejoin: miter; stroke-miterlimit: 4; fill: rgb(124,179,66); fill-rule: nonzero; opacity: 1;"  transform=" translate(0, 0)" d="M -18.4375 -18.4375 L 18.4375 -18.4375 L 18.4375 18.4375 L -18.4375 18.4375 z" stroke-linecap="round" />
</g>
<g transform="matrix(3.0372881356 0 0 3.0372881356 448.0000000002 576)" id="h1PeZVUj34XXlu9KsrrXY"  >
<path style="stroke: rgb(212,5,148); stroke-width: 0; stroke-dasharray: none; stroke-linecap: butt; stroke-dashoffset: 0; stroke-linejoin: miter; stroke-miterlimit: 4; fill: rgb(124,179,66); fill-rule: nonzero; opacity: 1;"  transform=" translate(0, 0)" d="M -18.4375 -18.4375 L 18.4375 -18.4375 L 18.4375 18.4375 L -18.4375 18.4375 z" stroke-linecap="round" />
</g>
<g transform="matrix(3.0372881356 0 0 3.0372881356 576.0000000002 576)" id="UDe9nxVWxSsMi08L_oS8W"  >
<path style="stroke: rgb(212,5,148); stroke-width: 0; stroke-dasharray: none; stroke-linecap: butt; stroke-dashoffset: 0; stroke-linejoin: miter; stroke-miterlimit: 4; fill: rgb(124,179,66); fill-rule: nonzero; opacity: 1;"  transform=" translate(0, 0)" d="M -18.4375 -18.4375 L 18.4375 -18.4375 L 18.4375 18.4375 L -18.4375 18.4375 z" stroke-linecap="round" />
</g>
<g transform="matrix(1.1341770613 0 0 1.1925444142 192 192)" id="qmoWU-AZDLGrdMOgrrXZu"  >
<path style="stroke: rgb(71,15,229); stroke-width: 0; stroke-dasharray: none; stroke-linecap: butt; stroke-dashoffset: 0; stroke-linejoin: miter; stroke-miterlimit: 4; fill: rgb(253,216,53); fill-rule: nonzero; opacity: 1;"  transform=" translate(-49.3750066998, -46.9584187664)" d="M 49.37582 0 L 64.02293999999999 31.75541 L 98.75001999999999 35.87268 L 73.07497 59.616640000000004 L 79.89013 93.91684000000001 L 49.37501 76.83520000000001 L 18.859890000000004 93.91684000000001 L 25.675050000000002 59.61664000000001 L 3.552713678800501e-15 35.87268000000001 L 34.72708 31.75541000000001 z" stroke-linecap="round" />
</g>
<g transform="matrix(1.1341770613 0 0 1.1925444142 447.9999962568 191.9999985293)" id="UanOnKmg-zYHz1aV0m4Bo"  >
<path style="stroke: rgb(71,15,229); stroke-width: 0; stroke-dasharray: none; stroke-linecap: butt; stroke-dashoffset: 0; stroke-linejoin: miter; stroke-miterlimit: 4; fill: rgb(253,216,53); fill-rule: nonzero; opacity: 1;"  transform=" translate(-49.37501, -46.95842)" d="M 49.37582 0 L 64.02293999999999 31.75541 L 98.75001999999999 35.87268 L 73.07497 59.616640000000004 L 79.89013 93.91684000000001 L 49.37501 76.83520000000001 L 18.859890000000004 93.91684000000001 L 25.675050000000002 59.61664000000001 L 3.552713678800501e-15 35.87268000000001 L 34.72708 31.75541000000001 z" stroke-linecap="round" />
</g>
<g transform="matrix(1.1341770613 0 0 1.1925444142 319.9999962564 320.0000014706)" id="I2cilkM6-CYKMSre5WDrS"  >
<path style="stroke: rgb(71,15,229); stroke-width: 0; stroke-dasharray: none; stroke-linecap: butt; stroke-dashoffset: 0; stroke-linejoin: miter; stroke-miterlimit: 4; fill: rgb(253,216,53); fill-rule: nonzero; opacity: 1;"  transform=" translate(-49.37501, -46.95842)" d="M 49.37582 0 L 64.02293999999999 31.75541 L 98.75001999999999 35.87268 L 73.07497 59.616640000000004 L 79.89013 93.91684000000001 L 49.37501 76.83520000000001 L 18.859890000000004 93.91684000000001 L 25.675050000000002 59.61664000000001 L 3.552713678800501e-15 35.87268000000001 L 34.72708 31.75541000000001 z" stroke-linecap="round" />
</g>
<g transform="matrix(1.1341770613 0 0 1.1925444142 192.0000037436 448.0000014708)" id="DKqH1q6hZ1d27-5YTApCF"  >
<path style="stroke: rgb(71,15,229); stroke-width: 0; stroke-dasharray: none; stroke-linecap: butt; stroke-dashoffset: 0; stroke-linejoin: miter; stroke-miterlimit: 4; fill: rgb(253,216,53); fill-rule: nonzero; opacity: 1;"  transform=" translate(-49.37501, -46.95842)" d="M 49.37582 0 L 64.02293999999999 31.75541 L 98.75001999999999 35.87268 L 73.07497 59.616640000000004 L 79.89013 93.91684000000001 L 49.37501 76.83520000000001 L 18.859890000000004 93.91684000000001 L 25.675050000000002 59.61664000000001 L 3.552713678800501e-15 35.87268000000001 L 34.72708 31.75541000000001 z" stroke-linecap="round" />
</g>
<g transform="matrix(1.1341770613 0 0 1.1925444142 448.0000037436 448.0000014708)" id="dcc_2R1uoUj7i1DSfYP2z"  >
<path style="stroke: rgb(71,15,229); stroke-width: 0; stroke-dasharray: none; stroke-linecap: butt; stroke-dashoffset: 0; stroke-linejoin: miter; stroke-miterlimit: 4; fill: rgb(253,216,53); fill-rule: nonzero; opacity: 1;"  transform=" translate(-49.37501, -46.95842)" d="M 49.37582 0 L 64.02293999999999 31.75541 L 98.75001999999999 35.87268 L 73.07497 59.616640000000004 L 79.89013 93.91684000000001 L 49.37501 76.83520000000001 L 18.859890000000004 93.91684000000001 L 25.675050000000002 59.61664000000001 L 3.552713678800501e-15 35.87268000000001 L 34.72708 31.75541000000001 z" stroke-linecap="round" />
</g>
</svg>