<?xml version="1.0" encoding="UTF-8" standalone="no" ?>
<!DOCTYPE svg PUBLIC "-//W3C//DTD SVG 1.1//EN" "http://www.w3.org/Graphics/SVG/1.1/DTD/svg11.dtd">
<svg xmlns="http://www.w3.org/2000/svg" xmlns:xlink="http://www.w3.org/1999/xlink" version="1.1" width="640" height="640" viewBox="0 0 640 640" xml:space="preserve">
<desc>Created with Fabric.js 5.3.0</desc>
<defs>
</defs>
<g transform="matrix(7.5 0 0 9.1428571429 319.4375 320)" id="bIxoUyP2GrkvM5cEjKh-v"  >
<path style="stroke: rgb(211,214,218); stroke-width: 0; stroke-dasharray: none; stroke-linecap: butt; stroke-dashoffset: 0; stroke-linejoin: miter; stroke-miterlimit: 4; fill: rgb(255,255,255); fill-rule: nonzero; opacity: 1;"  transform=" translate(0, 0)" d="M -35 -35 L 35 -35 L 35 35 L -35 35 z" stroke-linecap="round" />
</g>
<g transform="matrix(1.756097561 0 0 1.756097561 112 55)" id="4Kgkatww7bGmB4ABIHH2G"  >
<path style="stroke: rgb(0,0,0); stroke-width: 0; stroke-dasharray: none; stroke-linecap: butt; stroke-dashoffset: 0; stroke-linejoin: miter; stroke-miterlimit: 4; fill: rgb(120,124,126); fill-rule: nonzero; opacity: 1;"  transform=" translate(0, 0)" d="M -25.625 -25.625 L 25.625 -25.625 L 25.625 25.625 L -25.625 25.625 z" stroke-linecap="round" />
</g>
<g transform="matrix(1.756097561 0 0 1.756097561 112 161.0000000013)" id="XC1gpaAp3jNMe0AWot9wJ"  >
<path style="stroke: rgb(0,0,0); stroke-width: 0; stroke-dasharray: none; stroke-linecap: butt; stroke-dashoffset: 0; stroke-linejoin: miter; stroke-miterlimit: 4; fill: rgb(120,124,126); fill-rule: nonzero; opacity: 1;"  transform=" translate(0, 0)" d="M -25.625 -25.625 L 25.625 -25.625 L 25.625 25.625 L -25.625 25.625 z" stroke-linecap="round" />
</g>
<g transform="matrix(1.756097561 0 0 1.756097561 216.0000000006 161.0000000006)" id="CPu06uH62k2mJOHwjhYTM"  >
<path style="stroke: rgb(0,0,0); stroke-width: 0; stroke-dasharray: none; stroke-linecap: butt; stroke-dashoffset: 0; stroke-linejoin: miter; stroke-miterlimit: 4; fill: rgb(201,180,88); fill-rule: nonzero; opacity: 1;"  transform=" translate(0, 0)" d="M -25.625 -25.625 L 25.625 -25.625 L 25.625 25.625 L -25.625 25.625 z" stroke-linecap="round" />
</g>
<g transform="matrix(1.756097561 0 0 1.756097561 320 161.0000000006)" id="6Fl3a00EDYhnutWKAU9UL"  >
<path style="stroke: rgb(0,0,0); stroke-width: 0; stroke-dasharray: none; stroke-linecap: butt; stroke-dashoffset: 0; stroke-linejoin: miter; stroke-miterlimit: 4; fill: rgb(120,124,126); fill-rule: nonzero; opacity: 1;"  transform=" translate(0, 0)" d="M -25.625 -25.625 L 25.625 -25.625 L 25.625 25.625 L -25.625 25.625 z" stroke-linecap="round" />
</g>
<g transform="matrix(1.756097561 0 0 1.756097561 424.0000000006 161.0000000006)" id="2okcdnKwVrHq4BYTxtJoG"  >
<path style="stroke: rgb(0,0,0); stroke-width: 0; stroke-dasharray: none; stroke-linecap: butt; stroke-dashoffset: 0; stroke-linejoin: miter; stroke-miterlimit: 4; fill: rgb(120,124,126); fill-rule: nonzero; opacity: 1;"  transform=" translate(0, 0)" d="M -25.625 -25.625 L 25.625 -25.625 L 25.625 25.625 L -25.625 25.625 z" stroke-linecap="round" />
</g>
<g transform="matrix(1.756097561 0 0 1.756097561 528.0000000006 161.0000000006)" id="_wgV9oh_UDHvciOuzGkFD"  >
<path style="stroke: rgb(0,0,0); stroke-width: 0; stroke-dasharray: none; stroke-linecap: butt; stroke-dashoffset: 0; stroke-linejoin: miter; stroke-miterlimit: 4; fill: rgb(120,124,126); fill-rule: nonzero; opacity: 1;"  transform=" translate(0, 0)" d="M -25.625 -25.625 L 25.625 -25.625 L 25.625 25.625 L -25.625 25.625 z" stroke-linecap="round" />
</g>
<g transform="matrix(1.756097561 0 0 1.756097561 112 267.0000000013)" id="wnrZn3Iasi3PVeEf3R_c9"  >
<path style="stroke: rgb(0,0,0); stroke-width: 0; stroke-dasharray: none; stroke-linecap: butt; stroke-dashoffset: 0; stroke-linejoin: miter; stroke-miterlimit: 4; fill: rgb(120,124,126); fill-rule: nonzero; opacity: 1;"  transform=" translate(0, 0)" d="M -25.625 -25.625 L 25.625 -25.625 L 25.625 25.625 L -25.625 25.625 z" stroke-linecap="round" />
</g>
<g transform="matrix(1.756097561 0 0 1.756097561 216.0000000006 267.0000000013)" id="fhRSXKBCje8y0gTh7CEJp"  >
<path style="stroke: rgb(0,0,0); stroke-width: 0; stroke-dasharray: none; stroke-linecap: butt; stroke-dashoffset: 0; stroke-linejoin: miter; stroke-miterlimit: 4; fill: rgb(120,124,126); fill-rule: nonzero; opacity: 1;"  transform=" translate(0, 0)" d="M -25.625 -25.625 L 25.625 -25.625 L 25.625 25.625 L -25.625 25.625 z" stroke-linecap="round" />
</g>
<g transform="matrix(1.756097561 0 0 1.756097561 320 267.0000000019)" id="FiscbCNZsO_sEqMax28lz"  >
<path style="stroke: rgb(0,0,0); stroke-width: 0; stroke-dasharray: none; stroke-linecap: butt; stroke-dashoffset: 0; stroke-linejoin: miter; stroke-miterlimit: 4; fill: rgb(106,170,100); fill-rule: nonzero; opacity: 1;"  transform=" translate(0, 0)" d="M -25.625 -25.625 L 25.625 -25.625 L 25.625 25.625 L -25.625 25.625 z" stroke-linecap="round" />
</g>
<g transform="matrix(1.756097561 0 0 1.756097561 424.0000000006 267.0000000013)" id="P25MamtNMZUIOT6NFX6Mx"  >
<path style="stroke: rgb(0,0,0); stroke-width: 0; stroke-dasharray: none; stroke-linecap: butt; stroke-dashoffset: 0; stroke-linejoin: miter; stroke-miterlimit: 4; fill: rgb(120,124,126); fill-rule: nonzero; opacity: 1;"  transform=" translate(0, 0)" d="M -25.625 -25.625 L 25.625 -25.625 L 25.625 25.625 L -25.625 25.625 z" stroke-linecap="round" />
</g>
<g transform="matrix(1.756097561 0 0 1.756097561 528.0000000006 267.0000000006)" id="mArQqvc7rj2t1bDT4mcE6"  >
<path style="stroke: rgb(0,0,0); stroke-width: 0; stroke-dasharray: none; stroke-linecap: butt; stroke-dashoffset: 0; stroke-linejoin: miter; stroke-miterlimit: 4; fill: rgb(120,124,126); fill-rule: nonzero; opacity: 1;"  transform=" translate(0, 0)" d="M -25.625 -25.625 L 25.625 -25.625 L 25.625 25.625 L -25.625 25.625 z" stroke-linecap="round" />
</g>
<g transform="matrix(1.756097561 0 0 1.756097561 112 373)" id="v10MYXe3yDpfJjwF9yNLd"  >
<path style="stroke: rgb(0,0,0); stroke-width: 0; stroke-dasharray: none; stroke-linecap: butt; stroke-dashoffset: 0; stroke-linejoin: miter; stroke-miterlimit: 4; fill: rgb(120,124,126); fill-rule: nonzero; opacity: 1;"  transform=" translate(0, 0)" d="M -25.625 -25.625 L 25.625 -25.625 L 25.625 25.625 L -25.625 25.625 z" stroke-linecap="round" />
</g>
<g transform="matrix(1.756097561 0 0 1.756097561 216.0000000013 373.0000000006)" id="SJZVRDuT0JdERzpKPcg-Q"  >
<path style="stroke: rgb(0,0,0); stroke-width: 0; stroke-dasharray: none; stroke-linecap: butt; stroke-dashoffset: 0; stroke-linejoin: miter; stroke-miterlimit: 4; fill: rgb(201,180,88); fill-rule: nonzero; opacity: 1;"  transform=" translate(0, 0)" d="M -25.625 -25.625 L 25.625 -25.625 L 25.625 25.625 L -25.625 25.625 z" stroke-linecap="round" />
</g>
<g transform="matrix(1.756097561 0 0 1.756097561 320.0000000006 373.0000000006)" id="beeAbrbHPf6f2pZ3NuRqZ"  >
<path style="stroke: rgb(0,0,0); stroke-width: 0; stroke-dasharray: none; stroke-linecap: butt; stroke-dashoffset: 0; stroke-linejoin: miter; stroke-miterlimit: 4; fill: rgb(106,170,100); fill-rule: nonzero; opacity: 1;"  transform=" translate(0, 0)" d="M -25.625 -25.625 L 25.625 -25.625 L 25.625 25.625 L -25.625 25.625 z" stroke-linecap="round" />
</g>
<g transform="matrix(1.756097561 0 0 1.756097561 424.0000000013 373.0000000006)" id="Ys2SNqZsT6yYwEDZ5a9vN"  >
<path style="stroke: rgb(0,0,0); stroke-width: 0; stroke-dasharray: none; stroke-linecap: butt; stroke-dashoffset: 0; stroke-linejoin: miter; stroke-miterlimit: 4; fill: rgb(201,180,88); fill-rule: nonzero; opacity: 1;"  transform=" translate(0, 0)" d="M -25.625 -25.625 L 25.625 -25.625 L 25.625 25.625 L -25.625 25.625 z" stroke-linecap="round" />
</g>
<g transform="matrix(1.756097561 0 0 1.756097561 528.0000000006 373.0000000006)" id="fBDo-Hn-EGqISv2biE0CU"  >
<path style="stroke: rgb(0,0,0); stroke-width: 0; stroke-dasharray: none; stroke-linecap: butt; stroke-dashoffset: 0; stroke-linejoin: miter; stroke-miterlimit: 4; fill: rgb(120,124,126); fill-rule: nonzero; opacity: 1;"  transform=" translate(0, 0)" d="M -25.625 -25.625 L 25.625 -25.625 L 25.625 25.625 L -25.625 25.625 z" stroke-linecap="round" />
</g>
<g transform="matrix(1.756097561 0 0 1.756097561 112 479)" id="FEACgqXYEMLalj_5bSELy"  >
<path style="stroke: rgb(0,0,0); stroke-width: 0; stroke-dasharray: none; stroke-linecap: butt; stroke-dashoffset: 0; stroke-linejoin: miter; stroke-miterlimit: 4; fill: rgb(201,180,88); fill-rule: nonzero; opacity: 1;"  transform=" translate(0, 0)" d="M -25.625 -25.625 L 25.625 -25.625 L 25.625 25.625 L -25.625 25.625 z" stroke-linecap="round" />
</g>
<g transform="matrix(1.756097561 0 0 1.756097561 216.0000000013 479.0000000006)" id="S-Rav81AUtumgc3GtmpVJ"  >
<path style="stroke: rgb(0,0,0); stroke-width: 0; stroke-dasharray: none; stroke-linecap: butt; stroke-dashoffset: 0; stroke-linejoin: miter; stroke-miterlimit: 4; fill: rgb(106,170,100); fill-rule: nonzero; opacity: 1;"  transform=" translate(0, 0)" d="M -25.625 -25.625 L 25.625 -25.625 L 25.625 25.625 L -25.625 25.625 z" stroke-linecap="round" />
</g>
<g transform="matrix(1.756097561 0 0 1.756097561 320.0000000006 479.0000000006)" id="YHvIqksQ4RnJL06QYubL6"  >
<path style="stroke: rgb(0,0,0); stroke-width: 0; stroke-dasharray: none; stroke-linecap: butt; stroke-dashoffset: 0; stroke-linejoin: miter; stroke-miterlimit: 4; fill: rgb(106,170,100); fill-rule: nonzero; opacity: 1;"  transform=" translate(0, 0)" d="M -25.625 -25.625 L 25.625 -25.625 L 25.625 25.625 L -25.625 25.625 z" stroke-linecap="round" />
</g>
<g transform="matrix(1.756097561 0 0 1.756097561 424.0000000013 479.0000000006)" id="l1FUdwohghV0_xAaiEdu9"  >
<path style="stroke: rgb(0,0,0); stroke-width: 0; stroke-dasharray: none; stroke-linecap: butt; stroke-dashoffset: 0; stroke-linejoin: miter; stroke-miterlimit: 4; fill: rgb(106,170,100); fill-rule: nonzero; opacity: 1;"  transform=" translate(0, 0)" d="M -25.625 -25.625 L 25.625 -25.625 L 25.625 25.625 L -25.625 25.625 z" stroke-linecap="round" />
</g>
<g transform="matrix(1.756097561 0 0 1.756097561 528.0000000006 479.0000000006)" id="v0d2UzrOWWvREFtaLzvM6"  >
<path style="stroke: rgb(0,0,0); stroke-width: 0; stroke-dasharray: none; stroke-linecap: butt; stroke-dashoffset: 0; stroke-linejoin: miter; stroke-miterlimit: 4; fill: rgb(201,180,88); fill-rule: nonzero; opacity: 1;"  transform=" translate(0, 0)" d="M -25.625 -25.625 L 25.625 -25.625 L 25.625 25.625 L -25.625 25.625 z" stroke-linecap="round" />
</g>
<g transform="matrix(1.756097561 0 0 1.756097561 216.0000000013 585.0000000006)" id="oO0nxdLmMuw4okDDs6omH"  >
<path style="stroke: rgb(0,0,0); stroke-width: 0; stroke-dasharray: none; stroke-linecap: butt; stroke-dashoffset: 0; stroke-linejoin: miter; stroke-miterlimit: 4; fill: rgb(106,170,100); fill-rule: nonzero; opacity: 1;"  transform=" translate(0, 0)" d="M -25.625 -25.625 L 25.625 -25.625 L 25.625 25.625 L -25.625 25.625 z" stroke-linecap="round" />
</g>
<g transform="matrix(1.756097561 0 0 1.756097561 320.0000000006 585.0000000013)" id="kNB3g5lZmLfAjZkKgh9pG"  >
<path style="stroke: rgb(0,0,0); stroke-width: 0; stroke-dasharray: none; stroke-linecap: butt; stroke-dashoffset: 0; stroke-linejoin: miter; stroke-miterlimit: 4; fill: rgb(106,170,100); fill-rule: nonzero; opacity: 1;"  transform=" translate(0, 0)" d="M -25.625 -25.625 L 25.625 -25.625 L 25.625 25.625 L -25.625 25.625 z" stroke-linecap="round" />
</g>
<g transform="matrix(1.756097561 0 0 1.756097561 424.0000000013 585.0000000013)" id="AA68WWfMUK0FHzHBH_0je"  >
<path style="stroke: rgb(0,0,0); stroke-width: 0; stroke-dasharray: none; stroke-linecap: butt; stroke-dashoffset: 0; stroke-linejoin: miter; stroke-miterlimit: 4; fill: rgb(106,170,100); fill-rule: nonzero; opacity: 1;"  transform=" translate(0, 0)" d="M -25.625 -25.625 L 25.625 -25.625 L 25.625 25.625 L -25.625 25.625 z" stroke-linecap="round" />
</g>
<g transform="matrix(1.756097561 0 0 1.756097561 528.0000000006 585.0000000013)" id="2HD6EN8sb-i4xMZopKnOt"  >
<path style="stroke: rgb(0,0,0); stroke-width: 0; stroke-dasharray: none; stroke-linecap: butt; stroke-dashoffset: 0; stroke-linejoin: miter; stroke-miterlimit: 4; fill: rgb(106,170,100); fill-rule: nonzero; opacity: 1;"  transform=" translate(0, 0)" d="M -25.625 -25.625 L 25.625 -25.625 L 25.625 25.625 L -25.625 25.625 z" stroke-linecap="round" />
</g>
<g transform="matrix(1.756097561 0 0 1.756097561 112 585.0000000006)" id="Y1JBPZQZTJS2tvIYF6PkZ"  >
<path style="stroke: rgb(0,0,0); stroke-width: 0; stroke-dasharray: none; stroke-linecap: butt; stroke-dashoffset: 0; stroke-linejoin: miter; stroke-miterlimit: 4; fill: rgb(106,170,100); fill-rule: nonzero; opacity: 1;"  transform=" translate(0, 0)" d="M -25.625 -25.625 L 25.625 -25.625 L 25.625 25.625 L -25.625 25.625 z" stroke-linecap="round" />
</g>
<g transform="matrix(1.756097561 0 0 1.756097561 216.0000000006 55)" id="lLGS74nLSHdJhfqw0-94j"  >
<path style="stroke: rgb(0,0,0); stroke-width: 0; stroke-dasharray: none; stroke-linecap: butt; stroke-dashoffset: 0; stroke-linejoin: miter; stroke-miterlimit: 4; fill: rgb(120,124,126); fill-rule: nonzero; opacity: 1;"  transform=" translate(0, 0)" d="M -25.625 -25.625 L 25.625 -25.625 L 25.625 25.625 L -25.625 25.625 z" stroke-linecap="round" />
</g>
<g transform="matrix(1.756097561 0 0 1.756097561 320 55)" id="jvY4dSu6ODidhKLPPQXBU"  >
<path style="stroke: rgb(0,0,0); stroke-width: 0; stroke-dasharray: none; stroke-linecap: butt; stroke-dashoffset: 0; stroke-linejoin: miter; stroke-miterlimit: 4; fill: rgb(120,124,126); fill-rule: nonzero; opacity: 1;"  transform=" translate(0, 0)" d="M -25.625 -25.625 L 25.625 -25.625 L 25.625 25.625 L -25.625 25.625 z" stroke-linecap="round" />
</g>
<g transform="matrix(1.756097561 0 0 1.756097561 528 55)" id="WrzJqynw5r1PfGl8223OD"  >
<path style="stroke: rgb(0,0,0); stroke-width: 0; stroke-dasharray: none; stroke-linecap: butt; stroke-dashoffset: 0; stroke-linejoin: miter; stroke-miterlimit: 4; fill: rgb(120,124,126); fill-rule: nonzero; opacity: 1;"  transform=" translate(0, 0)" d="M -25.625 -25.625 L 25.625 -25.625 L 25.625 25.625 L -25.625 25.625 z" stroke-linecap="round" />
</g>
<g transform="matrix(1.756097561 0 0 1.756097561 424.0000000006 55)" id="4-acIZbqIMjSBw9tCHiqz"  >
<path style="stroke: rgb(0,0,0); stroke-width: 0; stroke-dasharray: none; stroke-linecap: butt; stroke-dashoffset: 0; stroke-linejoin: miter; stroke-miterlimit: 4; fill: rgb(120,124,126); fill-rule: nonzero; opacity: 1;"  transform=" translate(0, 0)" d="M -25.625 -25.625 L 25.625 -25.625 L 25.625 25.625 L -25.625 25.625 z" stroke-linecap="round" />
</g>
</svg>